<svg id="Layer_1" data-name="Layer 1" xmlns="http://www.w3.org/2000/svg" viewBox="0 0 290 171"><defs><style>.cls-1{fill:#a8e5dc;}.cls-2{fill:#4dc7bc;}.cls-3{fill:#fff;}.cls-4{fill:#218e81;}.cls-5{fill:#fcffff;}.cls-6{fill:#117264;}.cls-7{fill:#f7d9a9;}.cls-8{fill:#fcc156;}.cls-9{fill:#b57b1d;}.cls-10{fill:#7a4e0f;}</style></defs><title>icon</title><path d="M267.48,58a58.86,58.86,0,0,0-8.37-8.7l.11-.09-27.74-22h0a40.94,40.94,0,0,0-26.33-9.65c-20.45,0-37.31,15.24-41.26,35.41a22.68,22.68,0,0,0-39.58,0c-4-20.17-20.81-35.41-41.26-35.41a40.94,40.94,0,0,0-26.33,9.65h0l-27.74,22,.11.09A58.89,58.89,0,0,0,8.17,94.45a59.47,59.47,0,0,0,118.28,8.87l.06-1.55.63.69a24.45,24.45,0,0,0,33.93-1.56l.42-.67.2,3.09A59.47,59.47,0,1,0,267.48,58Z"/><circle class="cls-1" cx="221.88" cy="96.62" r="30.85"/><circle class="cls-2" cx="221.88" cy="96.62" r="23.32"/><circle class="cls-3" cx="143.65" cy="82.96" r="9.65"/><circle class="cls-4" cx="221.88" cy="96.62" r="16.02"/><circle class="cls-5" cx="221.54" cy="96.62" r="36.27"/><circle class="cls-1" cx="221.54" cy="96.62" r="29.74"/><circle class="cls-2" cx="221.54" cy="96.62" r="23.36"/><circle class="cls-4" cx="221.54" cy="96.62" r="16.99"/><circle class="cls-6" cx="221.54" cy="96.62" r="10.62"/><circle class="cls-5" cx="65.46" cy="96.62" r="36.27"/><circle class="cls-7" cx="65.46" cy="96.62" r="29.74"/><circle class="cls-8" cx="65.46" cy="96.62" r="23.36"/><circle class="cls-9" cx="65.46" cy="96.62" r="16.99"/><circle class="cls-10" cx="65.46" cy="96.62" r="10.62"/><path class="cls-5" d="M208.86,149c-2.17,0-4.32-.14-6.45-.33a58.93,58.93,0,0,0,74.83-44.82A74.36,74.36,0,0,1,208.86,149Z"/><path class="cls-5" d="M55.5,149c-2.18,0-4.32-.14-6.45-.33a58.93,58.93,0,0,0,74.83-44.82A74.37,74.37,0,0,1,55.5,149Z"/><path class="cls-5" d="M221.46,54.83a45.74,45.74,0,0,1,5.89.43,36.2,36.2,0,0,0-48.51,30.5A44.85,44.85,0,0,1,221.46,54.83Z"/><path class="cls-5" d="M66.83,54.83a45.74,45.74,0,0,1,5.89.43,36.19,36.19,0,0,0-48.5,30.5A44.84,44.84,0,0,1,66.83,54.83Z"/></svg>