<?xml version="1.0" standalone="no"?>
<!DOCTYPE svg PUBLIC "-//W3C//DTD SVG 20010904//EN"
 "http://www.w3.org/TR/2001/REC-SVG-20010904/DTD/svg10.dtd">
<svg version="1.0" xmlns="http://www.w3.org/2000/svg"
 width="512.000000pt" height="512.000000pt" viewBox="0 0 512.000000 512.000000"
 preserveAspectRatio="xMidYMid meet">

<g transform="translate(0.000000,512.000000) scale(0.100000,-0.100000)"
fill="#000000" stroke="none">
<path d="M2116 4949 c-226 -24 -433 -86 -651 -194 -384 -192 -668 -476 -860
-860 -111 -223 -170 -423 -195 -665 -11 -105 -11 -282 -1 -375 l6 -60 35 2
c19 1 54 4 77 8 l43 6 -7 155 -6 154 181 0 181 0 107 -142 c58 -79 115 -151
126 -160 18 -16 49 -18 332 -18 l311 0 85 -142 c47 -78 86 -146 87 -152 2 -6
-58 -56 -133 -111 -75 -55 -140 -108 -145 -117 -5 -9 -9 -75 -9 -147 l0 -131
80 0 80 0 0 100 0 99 143 107 c160 120 177 136 177 171 0 27 -240 437 -272
466 -18 15 -49 17 -334 17 l-313 0 -107 143 c-58 78 -115 150 -126 160 -18 15
-44 17 -224 17 l-204 0 0 23 c1 89 86 361 161 509 59 118 173 298 190 298 6 0
69 -35 140 -77 l129 -78 0 -153 c0 -149 1 -154 25 -177 24 -25 25 -25 222 -25
l197 0 161 -160 c134 -133 166 -160 190 -160 22 0 102 48 288 172 142 95 263
180 268 189 5 10 9 123 9 251 l0 233 253 253 254 254 74 -37 c93 -47 269 -163
269 -178 0 -3 -93 -83 -207 -177 -231 -192 -243 -203 -243 -234 0 -12 25 -85
56 -161 31 -77 64 -161 75 -187 l18 -46 -95 -126 -94 -126 -193 0 -194 0 -174
-130 c-96 -72 -180 -138 -186 -147 -7 -9 -13 -28 -13 -42 0 -29 333 -536 361
-552 10 -5 76 -9 148 -9 l131 0 0 -240 0 -240 80 0 80 0 0 295 0 296 -25 24
c-23 24 -28 25 -178 25 l-154 0 -127 191 c-70 105 -126 192 -124 193 2 2 55
42 119 89 l116 87 199 0 c145 0 205 3 217 13 33 24 277 361 277 382 0 11 -31
99 -70 195 -38 96 -70 178 -70 182 0 4 89 82 198 172 l197 165 48 -47 c251
-244 433 -623 485 -1012 l7 -55 60 3 c98 5 98 5 91 71 -62 550 -385 1068 -857
1377 -365 240 -817 349 -1253 303z m499 -174 c86 -15 213 -47 264 -67 23 -8
11 -22 -227 -261 l-252 -253 0 -235 0 -236 -190 -126 c-104 -70 -193 -127
-197 -127 -4 0 -73 65 -153 145 l-147 145 -176 0 -177 0 0 134 c0 113 -3 137
-17 154 -10 11 -81 57 -158 102 -77 46 -142 85 -144 87 -7 6 88 100 164 163
192 158 441 284 680 343 87 22 140 32 280 51 64 9 365 -3 450 -19z"/>
<path d="M4400 3440 l0 -80 62 0 63 0 -800 -800 -800 -800 -182 0 -183 0 0
-80 0 -80 217 0 218 0 822 822 823 823 0 -63 0 -62 80 0 80 0 0 175 c0 238 13
225 -225 225 l-175 0 0 -80z"/>
<path d="M493 2630 c-146 -21 -270 -83 -310 -155 l-23 -40 0 -1035 0 -1035 23
-40 c61 -108 270 -174 512 -161 120 6 234 33 303 71 l42 24 43 -24 c89 -50
188 -69 357 -69 169 0 268 19 358 69 l42 24 43 -24 c89 -50 188 -69 357 -69
131 0 167 3 233 22 44 12 92 29 107 37 25 13 184 15 1180 15 l1151 0 24 25 25
24 0 1151 0 1151 -25 24 -24 25 -351 0 -351 0 -24 -25 -25 -24 0 -376 0 -375
-295 0 -296 0 -24 -25 -25 -24 0 -296 0 -295 -295 0 -296 0 -24 -25 -25 -24 0
-376 0 -375 -80 0 -80 0 0 418 c0 414 0 417 -23 457 -61 108 -270 174 -512
161 -62 -3 -142 -14 -182 -26 -40 -11 -75 -20 -78 -20 -3 0 -5 55 -5 123 0
145 -15 182 -94 234 -132 89 -425 119 -623 63 -40 -11 -75 -20 -78 -20 -3 0
-5 145 -5 323 0 316 -1 323 -23 362 -68 121 -346 193 -604 155z m342 -173 c60
-17 115 -44 115 -57 0 -13 -55 -40 -115 -57 -75 -20 -229 -27 -314 -14 -91 14
-186 51 -186 71 0 18 91 56 167 69 70 13 270 6 333 -12z m3965 -1017 l0 -1040
-240 0 -240 0 0 1040 0 1040 240 0 240 0 0 -1040z m-4393 748 c66 -19 103 -22
233 -22 130 0 167 3 233 22 42 12 80 22 82 22 3 0 4 -48 3 -107 l-3 -107 -39
-22 c-58 -33 -149 -49 -276 -49 -127 0 -218 16 -276 49 l-39 22 -3 107 c-1 59
0 107 3 107 2 0 40 -10 82 -22z m0 -400 c66 -19 103 -22 233 -22 130 0 167 3
233 22 42 12 80 22 82 22 3 0 4 -48 3 -107 l-3 -107 -39 -22 c-58 -33 -149
-49 -276 -49 -127 0 -218 16 -276 49 l-39 22 -3 107 c-1 59 0 107 3 107 2 0
40 -10 82 -22z m1228 -131 c67 -19 117 -45 112 -60 -6 -19 -107 -55 -188 -68
-85 -13 -239 -6 -314 14 -66 18 -117 45 -112 60 5 16 103 55 169 66 70 13 270
6 333 -12z m2525 -617 l0 -640 -240 0 -240 0 0 640 0 640 240 0 240 0 0 -640z
m-3753 348 c66 -19 103 -22 233 -22 130 0 167 3 233 22 42 12 80 22 82 22 3 0
4 -48 3 -107 l-3 -107 -39 -22 c-58 -33 -149 -49 -276 -49 -127 0 -218 16
-276 49 l-39 22 -3 107 c-1 59 0 107 3 107 2 0 40 -10 82 -22z m800 0 c66 -19
103 -22 233 -22 130 0 167 3 233 22 42 12 80 22 82 22 3 0 4 -48 3 -107 l-3
-107 -39 -22 c-58 -33 -149 -49 -276 -49 -127 0 -218 16 -276 49 l-39 22 -3
107 c-1 59 0 107 3 107 2 0 40 -10 82 -22z m1228 -131 c67 -19 117 -45 112
-60 -10 -33 -185 -77 -307 -77 -130 0 -305 46 -305 80 0 18 91 56 167 69 70
13 270 6 333 -12z m1085 -537 l0 -320 -240 0 -240 0 0 320 0 320 240 0 240 0
0 -320z m-3113 268 c113 -32 353 -32 466 0 42 12 80 22 82 22 3 0 4 -48 3
-107 l-3 -107 -39 -22 c-58 -33 -149 -49 -276 -49 -127 0 -218 16 -276 49
l-39 22 -3 107 c-1 59 0 107 3 107 2 0 40 -10 82 -22z m800 0 c113 -32 353
-32 466 0 42 12 80 22 82 22 3 0 4 -48 3 -107 l-3 -107 -39 -22 c-58 -33 -149
-49 -276 -49 -127 0 -218 16 -276 49 l-39 22 -3 107 c-1 59 0 107 3 107 2 0
40 -10 82 -22z m800 0 c113 -32 353 -32 466 0 42 12 80 22 82 22 3 0 4 -48 3
-107 l-3 -107 -39 -22 c-58 -33 -149 -49 -276 -49 -127 0 -218 16 -276 49
l-39 22 -3 107 c-1 59 0 107 3 107 2 0 40 -10 82 -22z m-1600 -400 c113 -32
353 -32 466 0 42 12 80 22 82 22 3 0 4 -48 3 -107 l-3 -107 -39 -22 c-58 -33
-149 -49 -276 -49 -127 0 -218 16 -276 49 l-39 22 -3 107 c-1 59 0 107 3 107
2 0 40 -10 82 -22z m800 0 c113 -32 353 -32 466 0 42 12 80 22 82 22 3 0 4
-48 3 -107 l-3 -107 -39 -22 c-58 -33 -149 -49 -276 -49 -127 0 -218 16 -276
49 l-39 22 -3 107 c-1 59 0 107 3 107 2 0 40 -10 82 -22z m800 0 c113 -32 353
-32 466 0 42 12 80 22 82 22 3 0 4 -48 3 -107 l-3 -107 -39 -22 c-58 -33 -149
-49 -276 -49 -127 0 -218 16 -276 49 l-39 22 -3 107 c-1 59 0 107 3 107 2 0
40 -10 82 -22z"/>
<path d="M2240 1680 l0 -80 80 0 80 0 0 80 0 80 -80 0 -80 0 0 -80z"/>
</g>
</svg>
