<?xml version="1.0" standalone="no"?>
<!DOCTYPE svg PUBLIC "-//W3C//DTD SVG 20010904//EN"
 "http://www.w3.org/TR/2001/REC-SVG-20010904/DTD/svg10.dtd">
<svg version="1.0" xmlns="http://www.w3.org/2000/svg"
 width="512.000000pt" height="512.000000pt" viewBox="0 0 512.000000 512.000000"
 preserveAspectRatio="xMidYMid meet">

<g transform="translate(0.000000,512.000000) scale(0.100000,-0.100000)"
fill="#000000" stroke="none">
<path d="M2685 5036 c-53 -20 -100 -74 -157 -182 -145 -278 -128 -492 61 -782
l74 -113 -22 -38 c-11 -22 -21 -51 -21 -66 l0 -26 -125 2 c-141 3 -165 -6
-165 -66 0 -68 41 -84 220 -85 l115 0 74 -278 c40 -152 79 -290 85 -307 11
-26 3 -85 -55 -415 -37 -212 -77 -434 -89 -495 -99 -505 -415 -932 -834 -1125
-318 -147 -669 -145 -971 7 -296 148 -530 432 -644 781 -67 203 -95 465 -72
672 14 125 257 1515 271 1547 5 12 21 25 36 29 29 8 43 4 199 -56 344 -132
795 -244 1230 -305 187 -27 188 -27 214 -7 42 31 41 104 -2 122 -12 5 -103 21
-202 35 -438 62 -822 159 -1218 306 -167 62 -220 71 -280 46 -47 -20 -92 -62
-112 -103 -19 -40 -267 -1432 -286 -1602 -15 -137 -6 -352 21 -500 86 -473
372 -888 748 -1084 177 -93 337 -136 545 -145 l138 -6 107 -107 c377 -377 834
-581 1382 -615 201 -13 557 33 593 76 23 29 22 74 -4 100 -24 24 -36 24 -219
-7 -142 -23 -428 -23 -565 0 -391 66 -713 219 -1002 475 -56 50 -104 94 -107
99 -3 5 39 23 93 41 54 17 133 47 176 66 43 20 78 34 80 33 1 -2 13 -24 28
-50 108 -188 368 -226 530 -78 77 70 111 149 112 255 0 71 -4 88 -33 147 -22
45 -51 83 -87 115 l-54 48 56 80 c64 94 182 330 213 430 22 69 23 70 104 125
44 30 118 92 164 137 46 46 85 77 87 70 3 -7 16 -48 29 -92 94 -306 97 -314
136 -364 105 -132 316 -152 442 -42 63 56 100 129 106 211 4 55 -4 102 -43
271 -26 112 -53 214 -60 225 -28 44 -105 38 -126 -10 -10 -20 -3 -61 35 -228
25 -112 46 -219 46 -238 0 -140 -178 -206 -273 -101 -29 32 -50 95 -201 586
-92 303 -169 554 -170 559 -1 12 376 117 385 107 3 -3 27 -100 53 -216 40
-180 50 -213 72 -232 30 -27 51 -29 82 -7 46 32 45 39 -13 293 -41 179 -53
250 -49 283 5 33 -6 85 -46 233 -31 117 -49 199 -45 214 3 13 34 52 68 86 79
79 148 107 259 108 73 1 83 -2 170 -46 51 -26 136 -77 188 -114 118 -83 363
-328 444 -441 363 -513 460 -1131 269 -1727 -159 -497 -542 -929 -1022 -1152
-52 -24 -100 -52 -107 -61 -20 -25 -17 -69 6 -92 33 -33 77 -25 197 34 226
111 422 254 592 432 320 334 513 744 566 1199 64 550 -97 1106 -446 1540 -192
238 -520 496 -709 556 -164 53 -363 10 -486 -103 -24 -23 -46 -39 -48 -37 -2
2 -13 42 -26 88 -26 101 -40 124 -86 146 -31 15 -34 19 -29 53 47 382 -45 617
-313 795 -128 85 -206 108 -277 83z m146 -179 c99 -56 150 -99 204 -170 49
-64 50 -80 13 -166 -46 -108 -122 -161 -230 -161 -79 0 -132 24 -193 84 -51
51 -54 70 -30 171 27 117 119 285 155 285 3 0 40 -19 81 -43z m299 -631 c-5
-70 -10 -130 -12 -132 -3 -3 -297 -84 -305 -84 -7 0 -144 212 -140 217 3 2 23
-1 44 -7 22 -7 77 -11 124 -9 70 3 95 9 149 36 36 18 83 50 104 72 22 22 41
39 43 38 1 -2 -2 -61 -7 -131z m120 -321 c7 -30 11 -57 9 -59 -12 -10 -433
-117 -444 -112 -12 4 -42 103 -34 110 8 7 415 115 435 115 17 1 23 -9 34 -54z
m108 -403 c29 -108 52 -202 52 -209 0 -7 -19 -17 -42 -23 -24 -7 -124 -34
-223 -60 -115 -32 -182 -45 -186 -39 -10 18 -111 401 -106 406 5 4 424 121
442 122 6 1 34 -88 63 -197z m-359 -883 c28 -92 51 -172 51 -179 0 -33 -200
-255 -208 -232 -5 15 97 587 103 580 2 -2 26 -78 54 -169z m-578 -1364 c41
-22 87 -89 94 -139 31 -204 -234 -311 -355 -144 -17 22 -30 48 -30 58 0 9 39
48 88 87 48 39 105 90 127 112 21 23 41 41 43 41 1 0 16 -7 33 -15z"/>
<path d="M767 3406 c-138 -51 -216 -184 -187 -320 20 -98 53 -133 243 -259
214 -142 207 -138 273 -138 95 0 173 63 195 159 12 56 -14 164 -67 271 -37 74
-63 110 -123 171 -42 43 -96 88 -121 100 -56 29 -159 36 -213 16z m139 -146
c35 -14 133 -114 167 -172 42 -72 80 -194 67 -218 -13 -25 -41 -39 -60 -31
-24 10 -293 191 -317 213 -38 35 -48 82 -28 133 27 71 98 102 171 75z"/>
<path d="M4043 3259 c-74 -29 -146 -97 -185 -177 -29 -59 -33 -76 -33 -147 0
-71 4 -88 33 -147 105 -214 372 -266 545 -108 77 70 111 149 111 255 0 67 -4
90 -28 143 -36 79 -114 152 -191 181 -73 28 -180 27 -252 0z m216 -149 c114
-57 145 -204 64 -300 -85 -101 -240 -92 -318 18 -26 38 -30 53 -30 107 0 54 4
69 30 107 60 84 167 113 254 68z"/>
<path d="M2125 3167 c-65 -22 -176 -83 -230 -126 -107 -86 -195 -220 -195
-295 1 -103 100 -206 198 -206 16 0 328 74 397 95 123 36 197 140 196 274 0
147 -110 259 -260 267 -38 2 -83 -2 -106 -9z m182 -181 c28 -31 33 -43 33 -87
0 -45 -4 -55 -33 -84 -19 -19 -45 -36 -58 -39 -13 -3 -98 -23 -189 -45 -150
-37 -167 -39 -187 -25 -31 20 -29 47 6 97 90 129 253 233 351 223 35 -3 51
-11 77 -40z"/>
<path d="M472 2508 c-12 -6 -32 -27 -44 -46 -19 -31 -20 -43 -15 -138 23 -368
188 -724 427 -919 359 -293 833 -242 1205 130 115 115 201 237 279 395 67 136
75 182 41 233 -21 33 -64 57 -100 57 -14 0 -65 -11 -113 -25 -133 -38 -270
-55 -446 -55 -381 0 -707 97 -1016 303 -97 65 -120 77 -155 76 -22 0 -50 -5
-63 -11z m363 -323 c190 -92 415 -158 638 -185 197 -25 516 -4 710 45 39 10
35 -6 -24 -110 -257 -451 -669 -664 -1025 -530 -235 89 -436 337 -523 647 -18
63 -51 248 -51 285 0 7 37 -12 83 -43 45 -30 132 -79 192 -109z"/>
<path d="M4330 2395 c-133 -38 -226 -141 -252 -283 -21 -111 33 -251 122 -322
70 -55 126 -74 220 -75 77 0 92 3 152 33 77 38 128 91 167 172 21 46 26 69 26
140 0 71 -5 94 -27 143 -71 152 -249 236 -408 192z m196 -170 c47 -27 94 -107
94 -158 0 -114 -93 -207 -207 -207 -16 0 -53 12 -81 26 -119 59 -145 208 -54
306 68 71 161 84 248 33z"/>
<path d="M3919 1537 c-72 -30 -110 -58 -149 -107 -62 -78 -89 -185 -70 -277
34 -166 172 -283 334 -284 74 -1 106 7 169 38 142 71 217 244 173 397 -21 73
-51 120 -106 170 -62 56 -121 79 -215 83 -67 3 -89 0 -136 -20z m199 -142
c103 -44 149 -160 103 -260 -79 -171 -322 -150 -371 33 -40 152 120 288 268
227z"/>
<path d="M3068 1157 c-143 -61 -223 -186 -216 -337 6 -131 73 -235 190 -297
48 -25 63 -28 153 -28 118 0 171 21 245 95 75 74 95 127 95 245 0 95 -2 103
-34 163 -37 67 -87 115 -161 153 -69 35 -196 38 -272 6z m234 -156 c57 -39 82
-85 86 -157 4 -55 1 -69 -22 -108 -16 -28 -44 -56 -72 -72 -39 -23 -53 -26
-108 -22 -129 8 -207 111 -182 241 8 41 68 114 110 133 48 22 146 13 188 -15z"/>
</g>
</svg>
