<?xml version="1.0" standalone="no"?>
<!DOCTYPE svg PUBLIC "-//W3C//DTD SVG 20010904//EN"
 "http://www.w3.org/TR/2001/REC-SVG-20010904/DTD/svg10.dtd">
<svg version="1.0" xmlns="http://www.w3.org/2000/svg"
 width="512.000000pt" height="512.000000pt" viewBox="0 0 512.000000 512.000000"
 preserveAspectRatio="xMidYMid meet">

<g transform="translate(0.000000,512.000000) scale(0.100000,-0.100000)"
fill="#000000" stroke="none">
<path d="M797 5024 c-353 -64 -640 -353 -702 -709 -80 -459 204 -895 656
-1009 36 -9 78 -16 92 -16 15 0 30 -6 33 -13 8 -22 -23 -153 -52 -218 -37 -82
-67 -122 -232 -306 -79 -88 -171 -197 -203 -243 -319 -445 -395 -1036 -202
-1555 40 -110 137 -291 211 -395 38 -54 134 -162 222 -252 134 -136 165 -162
225 -190 l70 -33 605 0 605 0 68 32 c53 25 93 57 181 143 62 60 144 148 182
195 l69 85 17 -22 c10 -13 41 -55 70 -95 152 -205 244 -288 357 -324 59 -18
96 -19 611 -19 517 0 551 1 612 20 89 27 149 73 251 192 419 490 581 1109 452
1732 -35 169 -86 312 -170 481 -76 151 -123 223 -363 550 -176 240 -241 369
-284 570 -16 77 -16 332 0 410 36 169 79 265 226 510 113 188 127 232 102 318
-19 66 -62 119 -120 150 l-41 22 -665 0 -665 0 -41 -22 c-58 -31 -101 -84
-120 -150 -25 -86 -11 -130 102 -318 53 -88 111 -189 129 -225 121 -243 146
-527 69 -798 -40 -143 -109 -268 -263 -477 -78 -104 -177 -244 -222 -310 -44
-66 -84 -120 -88 -120 -14 0 -274 294 -318 359 -23 34 -54 97 -69 141 -25 70
-28 95 -28 200 0 109 3 127 31 200 40 107 69 152 168 255 112 118 137 193 100
301 -21 61 -66 113 -122 141 -45 22 -63 23 -278 28 l-230 5 -3 25 c-1 14 -9
56 -18 93 -104 453 -553 745 -1017 661z m378 -178 c44 -14 109 -42 145 -63 80
-47 213 -178 259 -255 138 -237 131 -534 -18 -760 -146 -221 -392 -343 -652
-325 -177 13 -323 81 -454 212 -92 92 -144 175 -182 290 -22 68 -26 98 -27
205 -1 148 14 215 76 340 73 147 234 290 388 346 143 51 324 55 465 10z m3156
5 c16 -16 29 -38 29 -48 0 -11 -51 -106 -114 -212 -113 -190 -163 -292 -188
-384 l-12 -47 -366 0 -366 0 -13 48 c-20 82 -93 228 -199 406 -56 93 -102 178
-102 188 0 11 13 33 29 49 l29 29 622 0 622 0 29 -29z m-2040 -800 c49 -49 41
-78 -45 -171 -41 -44 -89 -100 -106 -125 -44 -63 -96 -178 -117 -255 -24 -89
-24 -290 0 -380 28 -106 98 -237 174 -324 37 -43 83 -96 101 -117 l34 -39
-812 0 -812 0 34 39 c18 21 63 73 100 115 105 122 162 246 191 416 l12 74 70
12 c315 54 583 290 684 601 11 34 23 84 26 110 4 26 8 54 10 61 3 9 55 12 215
12 l212 0 29 -29z m1715 -218 c0 -109 6 -194 16 -240 l15 -73 -360 0 c-338 0
-359 1 -352 17 20 54 37 227 32 341 l-5 122 327 0 326 0 1 -167z m133 -575
c34 -70 108 -181 227 -343 227 -308 279 -390 344 -532 l29 -63 -1059 0 -1059
0 21 48 c49 114 152 275 334 522 134 183 210 297 245 368 l52 102 407 0 407 0
52 -102z m-1649 -797 c8 -15 1 -41 -29 -118 -21 -54 -44 -117 -50 -140 l-12
-43 -1009 0 c-757 0 -1010 3 -1010 12 0 16 65 131 128 226 l54 82 959 0 c934
0 959 0 969 -19z m2328 -381 l20 -80 -1158 0 -1158 0 20 80 20 80 1118 0 1118
0 20 -80z m-4283 -134 c-70 -159 -71 -354 -2 -525 l25 -61 -153 0 -153 0 -8
77 c-13 144 9 350 55 521 l12 42 124 0 124 0 -24 -54z m313 34 c44 -27 91
-128 105 -226 22 -152 -33 -335 -115 -379 -35 -18 -38 -19 -72 -3 -66 32 -113
139 -123 278 -9 137 38 280 107 328 40 27 56 28 98 2z m487 -34 c-70 -159 -71
-354 -2 -525 l25 -61 -158 0 -158 0 25 61 c32 80 53 180 53 259 0 79 -21 179
-53 259 l-25 61 159 0 158 0 -24 -54z m313 34 c44 -27 91 -128 105 -226 22
-152 -33 -335 -115 -379 -35 -18 -38 -19 -72 -3 -66 32 -113 139 -123 278 -9
137 38 280 107 328 40 27 56 28 98 2z m487 -34 c-70 -159 -71 -354 -2 -525
l25 -61 -158 0 -158 0 25 61 c69 171 69 347 0 518 l-25 61 159 0 158 0 -24
-54z m204 -63 c-8 -45 -14 -160 -14 -275 0 -190 -1 -197 -17 -175 -45 58 -63
127 -63 252 0 104 3 127 23 169 25 54 71 120 79 113 2 -3 -1 -41 -8 -84z m586
-283 l240 -240 -331 0 -332 0 -6 23 c-12 48 -18 247 -11 350 l7 107 97 0 96 0
240 -240z m657 18 l-222 -223 -222 223 -223 222 445 0 445 0 -223 -222z m1293
105 c7 -109 1 -290 -12 -340 -5 -22 -10 -23 -97 -23 l-91 0 -240 240 -240 240
337 0 336 0 7 -117z m-650 -143 l220 -220 -445 0 -445 0 220 220 c121 121 222
220 225 220 3 0 104 -99 225 -220z m-1847 -440 c7 -32 28 -104 46 -160 l34
-100 -1033 0 -1033 0 -32 77 c-26 61 -80 224 -80 240 0 2 469 3 1043 3 l1043
0 12 -60z m2447 33 c-3 -16 -13 -52 -21 -80 l-15 -53 -1109 0 -1109 0 -15 53
c-8 28 -18 64 -21 80 l-7 27 1152 0 1152 0 -7 -27z m-105 -305 c-1 -22 -99
-199 -165 -298 -87 -129 -216 -275 -268 -302 l-42 -23 -565 0 c-561 0 -565 0
-606 22 -64 34 -215 213 -313 370 -53 86 -121 216 -121 233 0 7 336 10 1040
10 825 0 1040 -3 1040 -12z m-2183 -164 c11 -32 -320 -393 -402 -437 -40 -22
-46 -22 -602 -25 -555 -3 -563 -2 -612 19 -38 16 -84 56 -193 167 -123 126
-238 264 -238 286 0 12 2043 2 2047 -10z"/>
<path d="M880 4760 l0 -40 -56 0 c-87 0 -133 -18 -189 -75 -64 -63 -75 -100
-75 -245 0 -145 11 -182 75 -245 56 -57 102 -75 189 -75 l56 0 0 -160 0 -160
-55 0 c-78 0 -105 27 -105 105 l0 55 -80 0 -80 0 0 -56 c0 -87 18 -133 75
-189 56 -57 102 -75 189 -75 l56 0 0 -40 0 -40 80 0 80 0 0 40 0 40 58 0 c87
0 144 23 195 80 56 62 67 102 67 240 0 145 -11 182 -75 245 -56 57 -102 75
-189 75 l-56 0 0 160 0 160 55 0 c78 0 105 -27 105 -105 l0 -55 80 0 80 0 0
56 c0 81 -18 129 -67 184 -51 57 -108 80 -195 80 l-58 0 0 40 0 40 -80 0 -80
0 0 -40z m0 -360 l0 -160 -55 0 c-46 0 -60 4 -80 25 -24 23 -25 31 -25 135 0
104 1 112 25 135 20 21 34 25 80 25 l55 0 0 -160z m295 -345 c24 -23 25 -31
25 -135 0 -104 -1 -112 -25 -135 -20 -21 -34 -25 -80 -25 l-55 0 0 160 0 160
55 0 c46 0 60 -4 80 -25z"/>
</g>
</svg>
