<?xml version="1.0" standalone="no"?>
<!DOCTYPE svg PUBLIC "-//W3C//DTD SVG 20010904//EN"
 "http://www.w3.org/TR/2001/REC-SVG-20010904/DTD/svg10.dtd">
<svg version="1.0" xmlns="http://www.w3.org/2000/svg"
 width="512.000000pt" height="512.000000pt" viewBox="0 0 512.000000 512.000000"
 preserveAspectRatio="xMidYMid meet">

<g transform="translate(0.000000,512.000000) scale(0.100000,-0.100000)"
fill="#000000" stroke="none">
<path d="M3880 4923 c-241 -38 -453 -157 -596 -336 -32 -40 -63 -78 -69 -85
-9 -10 -38 -6 -146 22 -194 50 -333 67 -527 67 -229 0 -379 -20 -587 -78 -752
-209 -1346 -850 -1494 -1613 -31 -162 -41 -261 -41 -427 0 -181 19 -344 60
-509 l30 -121 -67 -71 c-91 -94 -168 -221 -209 -340 -44 -129 -58 -224 -51
-352 13 -239 106 -449 272 -615 269 -270 675 -348 1030 -199 87 37 163 85 250
160 l68 57 81 -26 c709 -227 1480 -70 2043 418 377 326 616 751 704 1250 19
108 23 165 23 335 0 267 -25 428 -101 669 l-26 84 49 41 c217 178 345 419 361
682 32 543 -402 1001 -941 993 -50 -1 -102 -3 -116 -6z m335 -93 c155 -39 293
-120 406 -237 78 -80 118 -137 164 -236 58 -121 78 -213 78 -362 0 -149 -20
-241 -78 -362 -43 -92 -85 -153 -153 -225 l-54 -57 -69 73 c-81 87 -156 139
-252 177 l-69 26 44 31 c69 47 129 137 143 213 5 29 13 38 41 48 78 28 115
131 76 213 -14 28 -22 71 -25 125 -9 144 -73 245 -195 305 l-67 33 -195 0
c-190 0 -196 -1 -251 -26 -128 -60 -197 -165 -206 -310 -3 -56 -11 -99 -25
-127 -39 -82 -2 -185 76 -213 28 -10 36 -19 41 -48 14 -75 77 -169 145 -216
l41 -28 -68 -27 c-95 -36 -178 -96 -260 -185 l-70 -75 -76 81 -76 82 -58 -6
c-32 -3 -82 -9 -110 -13 -69 -9 -69 -3 3 137 62 119 59 100 33 254 -14 85 -6
235 17 325 61 240 235 455 459 568 69 34 181 70 258 83 79 12 242 2 332 -21z
m16 -327 c91 -41 151 -127 164 -235 6 -53 5 -58 -12 -58 -12 0 -26 13 -36 34
-14 31 -22 35 -64 41 -65 8 -117 32 -161 72 -20 18 -38 33 -41 33 -13 0 -29
-17 -60 -63 -38 -55 -114 -103 -181 -113 -25 -4 -71 -2 -104 5 -41 9 -62 9
-69 2 -6 -6 -19 -11 -30 -11 -17 0 -18 6 -12 58 11 91 45 151 118 206 61 46
113 56 287 53 132 -2 162 -6 201 -24z m-1484 4 c11 -12 -30 -79 -59 -97 -43
-26 -84 -25 -199 5 -219 57 -301 21 -360 -160 -30 -93 -57 -117 -161 -144
-217 -56 -265 -118 -293 -384 -17 -163 -45 -235 -104 -274 -61 -41 -123 -30
-311 53 -111 49 -195 53 -282 12 -119 -55 -187 -149 -158 -218 29 -69 90 -84
238 -59 89 16 99 6 83 -85 -17 -98 -9 -124 69 -213 101 -117 116 -156 86 -227
-29 -69 -107 -96 -175 -62 -41 22 -58 54 -87 164 -32 118 -52 159 -99 200 -64
57 -128 56 -224 -3 -42 -26 -77 -39 -111 -43 l-50 -5 16 54 c56 191 153 408
249 556 209 321 494 573 837 738 216 104 450 170 688 194 89 9 397 7 407 -2z
m283 -49 c69 -16 128 -32 132 -34 4 -3 -7 -37 -24 -77 -63 -149 -86 -375 -53
-530 l14 -68 -60 -122 c-63 -128 -67 -151 -31 -191 30 -32 56 -36 151 -20 l91
16 77 -82 c117 -124 247 -204 420 -257 80 -24 103 -27 253 -27 182 -1 250 12
387 74 37 17 70 27 75 22 13 -13 57 -168 84 -297 18 -88 26 -164 31 -285 l5
-165 -84 -27 c-140 -47 -159 -39 -212 89 -42 101 -66 136 -110 157 -77 36
-144 11 -232 -89 -80 -91 -95 -98 -244 -105 -114 -5 -130 -9 -179 -35 -163
-89 -286 -410 -237 -619 48 -203 191 -328 377 -330 72 -1 80 2 182 53 91 46
109 52 134 44 26 -9 28 -14 33 -74 3 -35 11 -74 18 -87 8 -13 42 -36 78 -52
35 -16 64 -33 64 -38 0 -6 -11 -17 -24 -25 -28 -19 -56 -75 -56 -112 0 -21
-21 -50 -92 -122 -270 -276 -605 -466 -983 -559 -349 -85 -785 -68 -1114 44
l-51 17 36 50 c50 71 109 197 134 291 30 108 38 311 16 412 l-15 73 60 122
c63 128 67 151 31 191 -30 32 -56 36 -152 19 l-90 -15 -66 70 c-120 130 -260
217 -431 268 -119 36 -312 44 -434 19 -104 -21 -214 -63 -299 -114 -77 -46
-68 -57 -104 116 -51 242 -58 505 -20 746 l17 107 60 0 c52 0 71 6 143 45 45
25 92 45 104 45 37 0 87 -60 105 -126 48 -173 57 -196 92 -234 58 -66 156 -84
235 -44 93 48 135 181 88 280 -12 23 -49 73 -83 110 l-62 68 0 112 c0 96 -3
115 -19 133 -27 29 -73 35 -169 21 -107 -16 -137 -10 -137 29 0 59 121 132
217 132 39 0 75 -9 135 -36 138 -61 184 -75 248 -75 75 0 116 16 163 65 47 48
74 122 87 237 33 287 55 326 212 368 160 42 199 71 237 177 41 111 53 132 86
147 46 22 86 20 190 -9 100 -28 189 -32 238 -11 43 18 93 76 108 126 12 41 13
41 53 35 23 -3 97 -20 166 -37z m1197 -238 c73 -16 83 -38 83 -198 0 -154 -14
-198 -90 -274 -62 -62 -124 -88 -210 -88 -86 0 -148 26 -210 88 -77 78 -92
122 -88 276 l3 117 90 2 c75 2 99 6 146 30 31 15 74 47 95 70 l39 42 44 -27
c24 -15 68 -32 98 -38z m-595 -159 c-3 -52 -7 -68 -16 -65 -14 6 -36 47 -36
68 0 15 38 66 48 66 4 0 6 -31 4 -69z m787 43 c24 -31 26 -43 10 -78 -23 -51
-37 -39 -41 35 -2 38 0 69 4 69 4 0 16 -12 27 -26z m-309 -562 c0 -60 -41
-102 -99 -102 -59 0 -92 32 -98 96 l-5 49 101 0 101 0 0 -43z m-270 -22 c0
-64 58 -131 130 -150 97 -26 210 55 210 150 0 28 3 31 23 25 69 -21 168 -85
235 -151 39 -39 72 -78 72 -86 0 -15 -111 -85 -185 -116 -108 -44 -174 -56
-320 -56 -116 0 -154 3 -220 22 -82 23 -255 103 -274 126 -15 18 49 99 122
157 44 36 176 108 200 109 4 0 7 -14 7 -30z m319 -967 c17 -16 44 -63 62 -108
67 -163 134 -192 298 -126 29 12 55 20 57 18 6 -6 -16 -181 -37 -282 -42 -209
-153 -488 -263 -659 l-37 -58 -27 26 c-15 14 -43 31 -62 37 -59 20 -70 36 -69
95 2 62 -16 96 -63 120 -49 25 -114 13 -200 -38 -62 -36 -81 -43 -139 -46 -77
-5 -126 8 -186 50 -127 86 -179 289 -123 473 43 138 119 253 194 292 20 11 74
18 161 23 155 8 169 14 255 107 100 110 129 122 179 76z m-2804 -598 c98 -29
214 -87 285 -142 25 -20 80 -72 122 -116 l77 -80 58 6 c32 3 82 9 111 13 68 9
68 3 -4 -137 -61 -118 -60 -105 -34 -244 44 -244 -58 -554 -239 -730 l-41 -39
-17 24 c-67 97 -199 198 -312 239 l-63 23 29 18 c70 42 132 126 158 215 9 29
22 45 50 61 79 44 106 132 67 216 -14 29 -22 69 -25 123 -6 136 -71 240 -189
302 -52 27 -57 28 -248 31 -239 4 -277 -6 -369 -97 -69 -67 -97 -132 -106
-248 -4 -43 -16 -100 -27 -127 -14 -35 -18 -59 -13 -88 8 -45 51 -100 93 -117
22 -9 32 -24 45 -64 24 -75 68 -139 128 -187 50 -39 51 -41 28 -47 -52 -14
-178 -85 -230 -130 -30 -26 -75 -72 -99 -101 l-43 -53 -50 48 c-96 94 -179
240 -218 388 -17 62 -22 109 -22 210 0 101 5 148 22 210 89 333 361 583 699
645 89 17 278 4 377 -25z m1 -312 c88 -47 154 -155 154 -254 0 -31 -3 -36 -17
-32 -10 2 -27 19 -38 36 -17 27 -28 33 -70 38 -59 7 -120 36 -154 73 -35 37
-55 33 -90 -22 -63 -99 -169 -144 -285 -120 -39 7 -63 7 -85 0 l-31 -11 1 52
c1 105 54 188 150 236 l64 32 180 -3 c163 -3 184 -5 221 -25z m-126 -233 c35
-25 104 -50 137 -50 42 0 58 -54 57 -200 0 -104 -3 -133 -21 -171 -115 -256
-478 -242 -568 22 -11 33 -15 77 -13 159 l3 113 86 1 c75 1 94 6 151 34 37 18
80 49 99 71 19 22 36 40 37 40 2 1 17 -8 32 -19z m-485 -279 c-4 -3 -15 5 -26
18 -26 32 -25 85 4 111 l22 21 3 -72 c2 -39 0 -74 -3 -78z m805 74 c0 -13 -11
-37 -25 -52 l-24 -28 0 80 0 80 24 -28 c14 -15 25 -39 25 -52z m-330 -513 c0
-54 -12 -77 -52 -98 -67 -35 -137 10 -145 93 l-5 48 101 0 101 0 0 -43z m-270
-24 c0 -43 41 -107 84 -133 104 -61 228 -7 257 111 13 52 15 52 124 -5 68 -35
164 -119 200 -175 19 -28 19 -28 -6 -47 -46 -37 -204 -109 -284 -131 -112 -30
-306 -29 -420 1 -75 19 -236 92 -279 125 -18 14 -18 16 3 50 36 57 146 151
224 190 84 42 97 44 97 14z"/>
<path d="M2260 3231 c-73 -23 -147 -86 -181 -153 -11 -22 -23 -75 -28 -127
-11 -106 -17 -118 -77 -167 -91 -75 -114 -181 -58 -271 43 -69 95 -93 204 -93
53 0 91 -5 98 -12 26 -26 13 -86 -38 -183 -69 -132 -67 -169 18 -309 23 -38
44 -84 48 -101 3 -18 -2 -78 -11 -135 -30 -179 -3 -293 91 -379 42 -39 66 -52
109 -62 169 -38 296 124 222 281 -9 19 -42 63 -72 98 -30 35 -55 69 -55 75 0
40 44 66 172 102 113 31 148 82 148 218 0 129 3 132 122 129 110 -3 148 13
168 73 10 30 9 46 -10 107 -24 80 -23 91 26 199 20 46 34 92 34 115 -1 112
-105 205 -212 191 -22 -3 -63 -19 -90 -36 -27 -17 -53 -31 -56 -31 -4 0 -13
27 -19 61 -21 108 -74 151 -147 118 -42 -19 -56 2 -56 81 0 88 -28 144 -94
185 -43 26 -58 29 -140 32 -50 1 -102 -1 -116 -6z m181 -71 c19 -5 48 -23 63
-39 25 -26 29 -40 35 -113 7 -97 24 -131 75 -148 27 -9 41 -8 69 4 33 14 35
13 46 -10 6 -14 11 -38 11 -55 0 -41 24 -95 48 -108 33 -17 55 -13 108 20 64
41 96 50 138 38 41 -11 73 -48 82 -94 5 -27 -3 -53 -36 -125 -46 -99 -48 -133
-20 -233 22 -74 13 -82 -102 -82 -150 0 -182 -35 -180 -193 2 -90 1 -95 -26
-121 -19 -19 -53 -34 -113 -50 -192 -50 -230 -151 -109 -285 69 -76 88 -127
70 -182 -23 -68 -127 -97 -196 -55 -91 55 -125 170 -99 326 26 156 20 193 -45
300 -69 112 -70 148 -13 243 79 128 77 226 -4 279 -20 13 -44 17 -105 15 -87
-3 -122 10 -157 54 -25 32 -28 94 -5 132 8 15 33 40 55 55 54 39 78 91 92 206
13 100 26 129 80 179 50 46 155 65 238 42z"/>
<path d="M2122 4840 c-153 -28 -174 -36 -170 -68 3 -24 7 -27 38 -26 66 1 285
44 300 59 21 21 1 49 -36 52 -16 1 -75 -7 -132 -17z"/>
<path d="M510 4830 c-81 -14 -153 -79 -176 -158 -50 -173 106 -328 278 -278
95 27 160 116 159 217 0 140 -122 242 -261 219z m128 -97 c86 -62 80 -198 -10
-253 -69 -42 -166 -17 -208 52 -42 69 -17 165 52 209 42 26 126 22 166 -8z"/>
<path d="M1600 4686 c-186 -77 -444 -234 -595 -361 -320 -270 -566 -613 -710
-988 -37 -98 -39 -122 -9 -134 23 -9 48 23 74 97 33 96 111 257 176 367 240
401 614 736 1036 927 118 53 118 53 118 81 0 18 -20 38 -33 35 -1 -1 -27 -11
-57 -24z"/>
<path d="M4255 928 c-151 -171 -344 -329 -547 -449 -90 -52 -105 -73 -72 -100
14 -11 24 -9 72 16 172 90 380 253 553 433 125 130 146 159 136 186 -15 38
-52 16 -142 -86z"/>
<path d="M4593 808 c-6 -7 -16 -31 -23 -53 -29 -89 -116 -172 -203 -191 -33
-7 -52 -37 -38 -62 5 -10 27 -24 49 -30 48 -15 113 -58 143 -96 12 -15 32 -53
45 -85 38 -93 74 -95 107 -5 33 89 96 151 183 182 89 32 85 68 -10 107 -70 28
-137 90 -161 149 -31 76 -41 91 -61 94 -12 2 -25 -3 -31 -10z m140 -253 c25
-16 46 -32 46 -35 0 -3 -21 -19 -46 -35 -26 -17 -61 -52 -78 -77 l-32 -46 -37
49 c-20 27 -54 61 -76 75 -22 15 -40 29 -40 33 1 3 21 21 46 40 25 18 60 52
76 76 l31 43 32 -46 c17 -25 52 -60 78 -77z"/>
<path d="M3392 324 c-28 -12 -33 -19 -30 -42 4 -34 28 -39 80 -16 32 15 38 22
36 43 -4 32 -36 37 -86 15z"/>
</g>
</svg>
