<svg id="Group_3" data-name="Group 3" xmlns="http://www.w3.org/2000/svg" xmlns:xlink="http://www.w3.org/1999/xlink" width="174.99" height="85.824" viewBox="0 0 174.99 85.824">
  <defs>
    <clipPath id="clip-path">
      <rect id="Rectangle_3" data-name="Rectangle 3" width="174.99" height="85.824" fill="none"/>
    </clipPath>
  </defs>
  <rect id="Rectangle_2" data-name="Rectangle 2" width="174.989" height="55.874" transform="translate(0 25.346)" fill="#e7e0d8"/>
  <path id="Path_1" data-name="Path 1" d="M493.6,35.213l1.706-9.236.145-7.612-.192-8.224L494.906,6.7l1.2-.411,1.529-.116,7.133-.681,4.138.064,10.6-.424,5.385-.758,7.094-1.825,5.539-1.475L539.939,6.4l1.041,8.084.437,11.192.1,10.5-1.652,10.448.7,1.78.28.607-.059,2-.424,2.93-.5,2.564-.243.983-.521,1.648L537.436,62.9l-.3.3-1.944,1.1-2.765,3.048-.737.415L530.621,69,523.9,70.744l-8.045,1.932L483.776,36.764l-1.131-3.708L488.58,34Z" transform="translate(-377.197 -0.835)" fill="#fff"/>
  <g id="Group_2" data-name="Group 2">
    <g id="Group_1" data-name="Group 1" clip-path="url(#clip-path)">
      <path id="Path_2" data-name="Path 2" d="M552.788,355.282c0,2.543-15.53,4.6-34.687,4.6s-34.687-2.061-34.687-4.6,15.53-4.6,34.687-4.6,34.687,2.061,34.687,4.6" transform="translate(-377.798 -274.062)" fill="#e7e0d8"/>
      <path id="Path_3" data-name="Path 3" d="M497.766,359.829c0-1.545,9.252-2.8,20.665-2.8s20.665,1.253,20.665,2.8-9.252,2.8-20.665,2.8-20.665-1.253-20.665-2.8" transform="translate(-389.014 -279.027)" fill="#535656"/>
      <path id="Path_4" data-name="Path 4" d="M753.3,41.678l.206,4.413,4.678-.193,3.368.166" transform="translate(-588.716 -32.572)" fill="#c1c1bb"/>
      <path id="Path_5" data-name="Path 5" d="M734.815,0l3.975,1.981,3.258,4.222L747.1,13.5l-8.739-7-1.7-1.586Z" transform="translate(-574.273 -0.003)" fill="#3d3b38"/>
      <path id="Path_6" data-name="Path 6" d="M606.892,54.183h.546a6.051,6.051,0,0,0,.655.328c.378.136,1.022.4,1.311.055a103.172,103.172,0,0,0,5.79-28.512c-3.229-5.5-3.509-6.749.218-.437.1-1.393-.411-7.981-.109-8.63.1-.209.359-.169.546-.164.108.649.069,7.723,0,9.012-.17,3.18-.712,6.412-1.2,9.558a85.075,85.075,0,0,1-5.08,19.335,1.245,1.245,0,0,0,.819,0,.624.624,0,0,0,.6.218,37.058,37.058,0,0,0,6.5-15.84c.249-1.872.49-5.456.546-7.374.093-3.142-.279-19.434-.546-22.066-.254-2.509-1.224-6.858-2.567-9.012-9.05,2.519-20.357,4.74-29.713,4.37-4.613-.183-5.112-.459-.109-.655,6.477-.254,10.8.278,18.243-1.311,2.712-1.224,10.569-2.3,11.47-2.622.189-.067.132-.314.218-.437.255-.076,1.915,4.189,1.912,4.643.251.313,1.863.52,2.567.929.872.506,6.533,6.533,7.811,7.92-2.72-1.017-5.244-2.6-8.193-2.949,1.689,5.767,1.7,23.514.765,28.839a36.181,36.181,0,0,1-1.748,5.68c.386,2.5-2.145,10.2-4.643,10.869-2.334.626-4.645-.695-6.609-1.748" transform="translate(-454.488 0.001)" fill="#0b0b0b"/>
      <path id="Path_7" data-name="Path 7" d="M592.9,232.251c.672.828,1.332,1.691,2.076,2.458.26.268.8.755.765.492a4.487,4.487,0,0,0,1.147,1.42,28.118,28.118,0,0,1,3.059,2.294c.3-.37.006-.436.71-.492-.882-.861-3.391-2.6-2.84-2.895a41.761,41.761,0,0,0,6.172,4.916c.313.185,4.548,2.451,4.534,1.693a36.422,36.422,0,0,1-6.773-4.1c.169-.474,3.072,1.784,3.55,1.857.077.012.027-.212.109-.218.2-.014.583.479.929-.765a7.206,7.206,0,0,0,1.639.6c-1.322-1.029-2.8-1.884-4.151-2.895.028-1,.7-1.016.765-1.42,1.188,1,7.62,4.866,8.739,4.151.661-.422-.431-.75-1.092-1.092.144-.225.536.227.328-.437,1.331.6,1.685.9,2.185,0,.009-.016.354-.128.164-.328a32.385,32.385,0,0,1-8.138-4.7c.813-.18,3,1.919,4.752,2.513a7.68,7.68,0,0,0,8.466-2.895c.7-.973.82-2.327,1.311-1.8-.041.215-.063.435-.109.655-.1.012-.264-.048-.328.055-.4.645-1.305,3.557-1.748,4.588-.177.38-.317.255-.328.273a3.784,3.784,0,0,0-.655.874c-.345-.29-.562.694-.765.929-.294.341-.525.226-.765.546a32.969,32.969,0,0,1-3.059,4.533,22.125,22.125,0,0,1-1.966,2.076c-.1.079-1.943.981-2.239,1.092-.622.232-1.639.353-2.458.655a46.492,46.492,0,0,1-5.68-3.059c-4.383-3.8-8.1-8.3-12.016-12.563.03-.028-.3-.121.328-.437a37.3,37.3,0,0,0,5.735,5.79c.824.646,6.715,4.564,7.21,4.588.141.007.187-.015.164-.164-6.023-4.081-8.747-5.28-13.437-11.033-.922-1.131-1.712-2.438-2.622-3.55.29-.057.374.1.546.273.536.552,3.73,4.669,4.424,5.735.624.09.642-.477,1.365-.218" transform="translate(-458.413 -176.975)" fill="#c1c1bb"/>
      <path id="Path_8" data-name="Path 8" d="M585.037,172.247c-2.659.123-5.642.211-8.3.218a14.951,14.951,0,0,1-1.8.109l-3.059-2.294c1.523.042,12.572.585,12.945.055a2.22,2.22,0,0,0-.055-.819c-.6-.426-12.412.315-14.747-.109l-3.386-1.857c2.394.12,16.965.645,17.915,0,.5-.338.461-1.117.273-1.639-.055-.153,0-.424-.492-.546-.368-.091-5.663.019-6.937,0-1.862-.028-14.831-.355-15.4.164a2.294,2.294,0,0,0,0,.273l-6.172-2.731c7.405.2,20.34,1.2,27.037.874-.326.3,2.227.708,2.349.655.741-.318.391-1.844.492-1.912.174-.117.778.359.109.655.571,1.025.67,8.049.546,8.521-.17.648-.824.36-1.311.382" transform="translate(-434.381 -127.13)" fill="#c1c1bb"/>
      <path id="Path_9" data-name="Path 9" d="M587.908,25.5a8.995,8.995,0,0,1-2.513.765,108.231,108.231,0,0,1-18.3,2.622l-.109.218c2,.518,1.146,2.672-.819,1.857-.392-.163-.459-.3-.437-.765.45-.036.914.026,1.365,0v-.218c-1.589.125-3.156.206-4.752.218-.03-.541-1.044.193-.874-.655,2.244-.343-1.69-.263-2.13-.109-.085.03-.054.146-.055.218a9.8,9.8,0,0,0-3.277.328c-1.946-.043-3.9.032-5.844,0a64.983,64.983,0,0,0,14.8.328c-.374.658-3.125.819-4.315.874-1.174.054-10.32-.217-10.815-.437-.073-.033-.178-.206-.273-.273l.218-2.676c.468.234,9.24.838,10.432.874,8.133.244,19.657-1.309,27.692-3.168" transform="translate(-429.496 -19.932)" fill="#9fa09c"/>
      <path id="Path_10" data-name="Path 10" d="M715,159.876a27.364,27.364,0,0,0-1.092,3.878,66.25,66.25,0,0,0,2.294-7.811c.6-.433.952-1.258,1.092.109-.162.169-.144.352-.218.546-.522,1.366-1.252,4.4-2.294,7.046-1.193,3.035-2.763,5.954-4.151,8.9a1.245,1.245,0,0,1-.819,0,85.072,85.072,0,0,0,5.08-19.335c.569.116.568-1.391.765-2.458.862.4,1.325,1.024.546,1.748-.073.2.226.154.218.218-.294,2.412-1.127,4.829-1.42,7.155" transform="translate(-554.735 -117.817)" fill="#c1c1bb"/>
      <path id="Path_11" data-name="Path 11" d="M567.034,92.55c0,.068.256.216.273.218,1.283.219,5.977-.159,7.811,0a.6.6,0,0,1,.109.437c-.131,1.031-1.487.535-2.185.546-9.464.153-19.191-.6-28.675-.655-.507-.2-.435-.589-.328-1.092,7.659.4,15.333.567,22.995.546" transform="translate(-425.117 -71.903)" fill="#171713"/>
      <path id="Path_12" data-name="Path 12" d="M693.763,92c2.17,9.659,1.816,19.643.437,29.385.44-9.8-.583-19.582-.437-29.385" transform="translate(-542.179 -71.903)" fill="#0b0b0b"/>
      <path id="Path_13" data-name="Path 13" d="M544.577,188.671c-.63.316-.3.409-.328.437-.124.114-.477.2-.655.328-6.858-8.917-5.592-8.182-14.529-16.5l.437-.437c2.875,2.491,4.823,3.757,7.756,6.937,2.669,2.894,4.833,6.215,7.319,9.231" transform="translate(-413.475 -134.815)" fill="#8b8c83"/>
      <path id="Path_14" data-name="Path 14" d="M704.425,83.437c.138,2.551.244,5.091.219,7.647-.084,8.532-1.692,17.008-3.386,25.344.4-3.392.849-6.776,1.311-10.159.156-1.146.512-2.3.655-3.441,1.031-8.207.739-8.119-.109-15.676-.259-2.31-.476-4.612-.546-6.937-.172-.363-1.03.04-1.311.055-1.624.085,1.163-.381,1.42-.437l1.475,12.89-.164-13.109c.108-.01.118-.108.219-.109.03,1.313.148,2.622.219,3.933" transform="translate(-547.652 -62.134)" fill="#0b0b0b"/>
      <path id="Path_15" data-name="Path 15" d="M641.232,42.489c0,.017-.368.087-.109.328.441.41,4.111.231,4.7-.109.348-.2.192-.421.219-.437.568.126,1.636-.629,1.529-1.147-.019-.093-.214-.043-.219-.055-.023-.059-.2-.421-.219-.437.073-.167.422-.41.437-.437.63-1.121-3.129.057-3.441.109-1.21.2-3.115.1-3,.437.779.311,3.462-.049,3.878.109,1.071.407-4.3,1.71-4.643.055-.287-1.377,3.238-1.215,5.844-1.475.236-.023,1.915-.867,2.239.382,1.125,4.333-6.829,4.128-7.7,3.878-1.222-.351.489-2.889.492-1.2" transform="translate(-500.408 -30.581)" fill="#9fa09c"/>
      <path id="Path_16" data-name="Path 16" d="M607.43,208.787a43.79,43.79,0,0,0,5.9,3.059c-1.12.715-7.552-3.15-8.739-4.151-2.915-3.132-6.312-5.743-9.449-8.63-2.845-2.617-5.308-5.664-8.575-7.811,3.611,1.929,6.483,5.263,9.558,8.029,1.3,1.173,2.74,2.218,4.042,3.386,2.771,2.486,2.145,3,7.264,6.117" transform="translate(-458.413 -149.469)" fill="#1c160e"/>
      <path id="Path_17" data-name="Path 17" d="M708.786,133.621c-.167-.151-.016-.887,0-1.529.147-5.8.327-11.565,0-17.369.512.295.342-.01.546-.218.848,7.557,1.14,7.469.109,15.676-.144,1.143-.5,2.295-.655,3.441" transform="translate(-553.87 -89.487)" fill="#dcdcd9"/>
      <path id="Path_18" data-name="Path 18" d="M720.666,175.275a37.059,37.059,0,0,1-6.5,15.84.624.624,0,0,1-.6-.218c2.2-2.888,6.246-12.93,6.554-15.949,0-.028.172.067.109-.546.661-.689.055.964.437.874" transform="translate(-557.666 -136.167)" fill="#c1c1bb"/>
      <path id="Path_19" data-name="Path 19" d="M536.678,178.027c.91,1.113,1.7,2.419,2.622,3.55,4.69,5.754,7.414,6.952,13.437,11.033.023.149-.023.171-.164.164-.495-.024-6.386-3.942-7.21-4.588a37.3,37.3,0,0,1-5.735-5.79c-2.486-3.015-4.65-6.337-7.319-9.231-2.933-3.18-4.882-4.446-7.756-6.937-.269-.233-1.684-1.38-1.748-1.475-.028-.041-.177-.326.055-.273a79.266,79.266,0,0,1,13.819,13.546" transform="translate(-408.525 -128.54)" fill="#1c160e"/>
      <path id="Path_20" data-name="Path 20" d="M662.291,215.492c.178-.015.392.029.546,0,.412.387.692.737.437,1.365.032.151.215-.25.219.164l-4.861.437c-.835-.579-1.708-1.1-2.567-1.639-.007-.068.133-.213.164-.218.616-.1,4.019.064,6.063-.109" transform="translate(-512.727 -168.409)" fill="#c1c1bb"/>
      <path id="Path_21" data-name="Path 21" d="M619.425,244.714a36.424,36.424,0,0,0,6.773,4.1c.015.758-4.221-1.508-4.534-1.693a41.76,41.76,0,0,1-6.172-4.916c-.717-.7-6.024-6.517-6.227-6.937-.079-.165-.161-.3.055-.273,3.682,3.9,5.675,6.491,10.1,9.722" transform="translate(-476.088 -183.648)" fill="#1c160e"/>
      <path id="Path_22" data-name="Path 22" d="M558.694,184.505a1.043,1.043,0,0,0-.655-.218c-.877-.5-9.908-10.057-13.163-11.907-2.888-1.474-5.2-3.758-7.811-5.626a167.329,167.329,0,0,1,14.256,10.323c2.634,2.31,4.836,5.028,7.374,7.428" transform="translate(-419.727 -130.322)" fill="#1c1a0f"/>
      <path id="Path_23" data-name="Path 23" d="M710.876,79.7,711.04,92.8l-1.475-12.89c.013,0,.071-.2.164-.218,1.03-.2,1.09.005,1.147,0" transform="translate(-554.539 -62.216)" fill="#c1c1bb"/>
      <path id="Path_24" data-name="Path 24" d="M645.85,229.128a32.385,32.385,0,0,0,8.138,4.7c.19.2-.155.312-.164.328-3.342-.817-6.121-2.883-8.739-5.025-2.888-2.363-5.5-5.156-8.521-7.374,3.314,1.934,6.158,5,9.285,7.374" transform="translate(-497.489 -173.305)" fill="#1c160e"/>
      <path id="Path_25" data-name="Path 25" d="M703.581,91.067c.327,5.8.147,11.567,0,17.369-.067,0-.208.025-.218-.055-.125-.916.391-12.054,0-15.949-.181-1.807-1.389-6.454-1.311-8.138.115-.359.5,1.013.655,1.693.394,1.668.568,3.395.874,5.08" transform="translate(-548.665 -65.831)" fill="#0b0b0b"/>
      <path id="Path_26" data-name="Path 26" d="M659.867,206.5c-.076,1.615.316,1.8-.546,1.966-.154.029-.368-.015-.546,0-.119-.381.9-.159.983-.382.377-1-.925-.608-1.038-.492-.549.566.9.719-2.349.655.011-1.857-.257-1.4-1.748-1.311-2.3.145-3.057.91-3.059-.218,2.66-.007,5.643-.1,8.3-.218" transform="translate(-509.211 -161.387)" fill="#201d1b"/>
      <path id="Path_27" data-name="Path 27" d="M633.72,247.222c1.762,1.667,4.507,4.007,6.445,5.462,1.346,1.011,2.83,1.866,4.151,2.895a7.206,7.206,0,0,1-1.639-.6c-3.4-1.627-6.97-5.282-9.613-7.975a1.043,1.043,0,0,1,.655.218" transform="translate(-494.753 -193.039)" fill="#1c160e"/>
      <path id="Path_28" data-name="Path 28" d="M704.141,89.15c-.2.208-.034.513-.546.218-.306-1.685-.48-3.412-.874-5.08-.16-.68-.541-2.052-.655-1.693.015-.324.145-.133.218-.328.281-.015,1.139-.417,1.311-.055.07,2.325.287,4.627.546,6.937" transform="translate(-548.678 -64.134)" fill="#c1c1bb"/>
      <path id="Path_29" data-name="Path 29" d="M742.065,138.749c.3-1.908.505-3.864.655-5.79.136-.079.642.24.655.273a51.407,51.407,0,0,1-.437,5.9c-.014.055-.28.7-.546.765-.05.4.712.572.164.929-.936.609.014-2.1-.492-2.076" transform="translate(-579.939 -103.9)" fill="#c1c1bb"/>
      <path id="Path_30" data-name="Path 30" d="M586.845,218.428c.035.263-.505-.224-.765-.492-.744-.766-1.4-1.629-2.076-2.458-1.655-2.04-3.19-4.185-4.916-6.172-.84-.968-3.7-3.791-3.823-4.042-.079-.165-.161-.3.055-.273,4.47,3.923,7.616,9.032,11.525,13.436" transform="translate(-449.517 -160.202)" fill="#1c160e"/>
      <path id="Path_31" data-name="Path 31" d="M649.743,44.578c.018.016.2.378.218.437-.062.724-.821.9-1.311,1.2-.027.016.13.235-.218.437.018-.165.02-.224-.164-.218a35.188,35.188,0,0,1-4.533.328c-.259-.241.109-.31.109-.328h.109c.473-.029,1.055.185.983-.437,1.953-.065,5.728-.818,3.277-1.584a1.1,1.1,0,0,1,1.529.164" transform="translate(-503.02 -34.527)" fill="#8b8c83"/>
      <path id="Path_32" data-name="Path 32" d="M684.3,260.529c-.5.9-.854.6-2.185,0-1.917-.866-5.338-3.237-6.554-5.025,2.618,2.142,5.4,4.208,8.739,5.025" transform="translate(-527.968 -199.682)" fill="#9fa09c"/>
      <path id="Path_33" data-name="Path 33" d="M713.481,274.814c-1.174,2.058-2.326,4.24-3.6,6.227-.094.1-.537.288-.219.437-.577.649-.483.218-1.092,0,.125-.208.208-.443.328-.655a32.963,32.963,0,0,0,3.059-4.533c.24-.32.471-.205.765-.546.2-.235.419-1.219.765-.929" transform="translate(-553.758 -214.731)" fill="#dcdcd9"/>
      <path id="Path_34" data-name="Path 34" d="M732.17,126.947c-.15,1.926-.356,3.881-.655,5.79-.173,1.1-.418,2.188-.655,3.277a66.227,66.227,0,0,1-2.294,7.811,27.379,27.379,0,0,1,1.092-3.878,80.5,80.5,0,0,0,2.513-14.693c.253.362.044,1.126,0,1.693" transform="translate(-569.388 -97.889)" fill="#0b0b0b"/>
      <path id="Path_35" data-name="Path 35" d="M686.872,272.3c.661.342,1.753.671,1.092,1.092a43.791,43.791,0,0,1-5.9-3.059l.055-.328a38.784,38.784,0,0,0,4.752,2.294" transform="translate(-533.048 -211.014)" fill="#909685"/>
      <path id="Path_36" data-name="Path 36" d="M734.506,226.426c.046-.22.068-.44.109-.655a33.4,33.4,0,0,0,.655-5.517c.412,3.454-1.532,11.565-3.5,14.2-.139.186-.238.226-.218,0a27.526,27.526,0,0,0,2.949-8.029" transform="translate(-571.724 -172.133)" fill="#201d1b"/>
      <path id="Path_37" data-name="Path 37" d="M718.825,271a35.27,35.27,0,0,1-4.26,7.1c1.279-1.987,2.43-4.169,3.6-6.227a3.785,3.785,0,0,1,.655-.874" transform="translate(-558.447 -211.795)" fill="#0b0b0b"/>
      <path id="Path_38" data-name="Path 38" d="M679.687,98.732c-.887,0-2.411.357-2.622-.765.7-.011,2.053.485,2.185-.546.693-.142.36.384.437,1.311" transform="translate(-529.14 -76.119)" fill="#dcdcd9"/>
      <path id="Path_39" data-name="Path 39" d="M726.359,78.781c-.166.232-.156.2-.437.273.173.818-.906,2.021-1.639,1.365-.292-.58.3-1.679.546-1.256-1.345,2.206.845.846.874.109.031-.778-1.195-.452-.929-.819a2.248,2.248,0,0,1,1.584.328" transform="translate(-565.981 -61.302)" fill="#0b0b0b"/>
      <path id="Path_40" data-name="Path 40" d="M650.493,42.279c-.471-.766-4.086.66-6.445.546-.111-.338,1.794-.235,3-.437.312-.052,4.071-1.231,3.441-.109" transform="translate(-503.333 -32.665)" fill="#0b0b0b"/>
      <path id="Path_41" data-name="Path 41" d="M702.414,302.5c-.119.212-.2.447-.328.655-1.047,1.75-2.269,2.3-1.639,1.42a22.1,22.1,0,0,0,1.966-2.076" transform="translate(-547.279 -236.413)" fill="#171713"/>
      <path id="Path_42" data-name="Path 42" d="M646.048,52.264c.071.622-.51.408-.983.437.039-.785.227-.412.983-.437" transform="translate(-504.132 -40.793)" fill="#9fa09c"/>
      <path id="Path_43" data-name="Path 43" d="M694.624,228.5c.08,0,.066.6.055.71-.109,1.045-.466.719-.055-.71" transform="translate(-542.712 -178.581)" fill="#9fa09c"/>
      <path id="Path_44" data-name="Path 44" d="M693.723,235c.139,1.365-.384,1.683-.055.055Z" transform="translate(-542.029 -183.66)" fill="#9fa09c"/>
      <path id="Path_45" data-name="Path 45" d="M713.159,303.941c-.318-.149.125-.335.219-.437a.669.669,0,0,1-.219.437" transform="translate(-557.26 -237.195)" fill="#0b0b0b"/>
      <path id="Path_46" data-name="Path 46" d="M608.237,261.067c-6.685-4.074-8.1-6.284-12.672-12.235.178-.124.532-.213.655-.328,3.92,4.263,7.633,8.76,12.016,12.563" transform="translate(-465.446 -194.211)" fill="#5e6760"/>
      <path id="Path_47" data-name="Path 47" d="M449.35,116.867c8.937,8.314,7.671,7.579,14.529,16.5,4.577,5.951,5.987,8.161,12.672,12.235a46.493,46.493,0,0,0,5.68,3.059c-2.448.9-4.917,1.762-7.319,2.786-.626,2.242-.582,7.513-.765,8.411-.194.956-1.331,1.322-1.529-.055-.127-.882-.078-2.032-.109-2.949-.177-5.134,1.2-5.3-3.6-3.987-.338,1.113-.6,7.094-.765,7.428-.247.493-1.172.462-1.311.109a30.479,30.479,0,0,1,.109-3.113c.012-.279,0-.413,0-.437a35,35,0,0,0,.328-4.206l-4.315-.492c-.837,2.661.636,9.734-1.857,8.411-.652-.346-.449-2.651-.492-3.386,0-.036,0-.073,0-.109-.1-1.652-.133-3.317-.219-4.97l-.273-.273c-1.757-.293-3.833-.587-4.916-2.185a4.193,4.193,0,0,1-3.6-2.294c-.284-.111-1.245.144-1.857-.109a68.713,68.713,0,0,1-5.626-5.626,3.228,3.228,0,0,1-.218-.874c-.882-1.185-2.231-.941-2.076-3.168-3.151-.751-2.35-2.35-2.622-3.386-.153-.584-2.159-1.856-1.748-3.933-1.351-1.52-.673-2.5-.874-3.6a3.4,3.4,0,0,1-.437-3.168c-1.686-1.955-.691-2.971-.765-3.714-.054-.549-1.648-2.6-.546-3.5-1.387-1.726-.566-2.786-.655-3.277-.014-.078-.783-1.033-.874-1.311-.244-.749-.321-2.193-.546-3.113.073,0,.186-.031.218.055.637,1.679.822,3.668,3.386,5.68l-1.693-.164c-.711.227,2.3,2.708,2.349,2.895.071.273-1.069-.274-2.239-.164.43,2.87,4.739,4.375,4.97,4.643.024.028.02.228-.055.273l-3.6-1.092c-.272.308.452,1.978.6,2.13.387.4,8.961,3.549,10.214,4.315,1.9.731,5.219,1.626,6.008,1.966,1.745.752.069.569-1.966.109-3.492-.79-10.053-4.161-14.092-5.244-1.126,2.838,2,3.629,4.26,4.7.011.005.1-.165.219-.109.177.085.574.482.929.655-1.532-.54-3.1-1.009-4.643-1.529.73,2.341.884,2.326,2.4,2.84,6.712,1.17,13.159,4.137,20.045,3.878a9.35,9.35,0,0,1-3.987.929c-1.507-.087-14.585-3.533-17.915-4.042l-.164.164c.817,1.3,1.642,2.735,3.168,3.277-.338.158-.72,1.422-.492,1.584,4.856.18,9.782-.055,14.583.819-1.423.317-11.9-.09-12.289.382a4.805,4.805,0,0,0-.055,1.256,7.712,7.712,0,0,0,.71.382c3.413,1.736,10.294.026,1.584,2.349l2.239,2.239c4.16-.34,8.177-2.572,12.344-1.2.68.373,2.978-2.155,3-2.349a5.476,5.476,0,0,0-.6-1.365c-.247-.108-4.018,2.4-4.97,1.912.47-.539,4.069-2.468,4.206-2.676a1.556,1.556,0,0,0-.109-.874c-.163-.107-2.9,1.012-3.714,1.2-4.059.949,3.383-1.58,3.878-2.239.7-.936-1.019-3.045-.546-4.588l-3.059-1.42a11.073,11.073,0,0,0-.437-2.185c-1.638-4.048-20.066-16.531-24.415-20.045l-.273.437c-.52-3.3-3-5.8-5.68-7.592,7.872,3.019,16.091,10.351,22.285,16.113" transform="translate(-333.76 -78.741)" fill="#0b0b0b"/>
      <path id="Path_48" data-name="Path 48" d="M536.376,291.457a1.642,1.642,0,0,1,.71.055,8.427,8.427,0,0,1-.492,1.584,40,40,0,0,1-6.773,2.4c-.2-.046-1-1.165-1.256-1.366,1.214-.373,7.4-2.64,7.811-2.676" transform="translate(-413.084 -227.769)" fill="#201d1b"/>
      <path id="Path_49" data-name="Path 49" d="M537.061,25.5l-.109,2.13a.322.322,0,0,0,.328.164l-.218,2.676c.1.068.2.241.273.273.495.22,9.64.491,10.815.437,1.19-.055,3.941-.216,4.315-.874.274-.021.5-.088.765-.109-.022.468.045.6.437.765-1.315,5.223-1.14,3.919-4.97,4.042-.758.024-1.592.118-2.349.218-3.3-.057-6.59-.159-9.886-.218v2.185c10.063.422,20.132.788,30.2.765-.119.368.181.66-1.365.328l-.055.273c.987,1.329.264,1.676.328,1.748.687.114.712-.063,1.2.273-2.622.005-5.244-.007-7.865,0-7.662.021-15.336-.141-22.995-.546-.107.5-.179.889.328,1.092,9.485.06,19.212.808,28.675.655.21,1.122,1.735.763,2.622.765.125,1.512.126,3.019.109,4.533a28.2,28.2,0,0,1-3.332-.164c-.2.049-.083.732-1.475.765-9.037-.389-18.105-.275-27.146-.546V49.1l15.512.546c.342-.161.038-1.074.218-1.2.646-.454,13.884.617,15.785.218,0,.012.192-.04.219.055.311,1.129-.23,3.909.273,4.206.408.241.975-1.317.71,1.147-.008.076.23.035.218.109-.688.428.126,1.073-1.42,1.8l-.273-.437L536.9,55l-3.332-.6c2.131-9.341,1.958-18.9,1.311-28.4.492-.6,1.623-.38,2.185-.492" transform="translate(-416.992 -19.932)" fill="#c1c1bb"/>
      <path id="Path_50" data-name="Path 50" d="M657.43,94.5c.116.08.152.07.218.218-1.834-.159-6.528.219-7.811,0-.017,0-.275-.15-.273-.218,2.622-.007,5.244.005,7.865,0" transform="translate(-507.648 -73.849)" fill="#5e6760"/>
      <path id="Path_51" data-name="Path 51" d="M538.705,147.5l32.007.437a.555.555,0,0,1,.109.983c-1.157.446-21.8-.21-24.8-.328-.966-.038-6.99-.166-7.319-.328-.3-.147-.143-.56,0-.765" transform="translate(-420.876 -115.277)" fill="#201d1b"/>
      <path id="Path_52" data-name="Path 52" d="M543.21,110.614c.788-.425,15.693.555,17.915.218.5.3.234.865-.219.983-1.171.3-14.244-.3-17.041-.218-1.233-.027-.742-.936-.656-.983" transform="translate(-424.398 -86.362)" fill="#201d1b"/>
      <path id="Path_53" data-name="Path 53" d="M558.159,45.954c2.12.047,4.2.235,6.336.218,1.6-.013,3.163-.094,4.752-.218v.218c-.451.026-.916-.036-1.365,0-.265.021-.49.088-.765.109a64.983,64.983,0,0,1-14.8-.328c1.947.032,3.9-.043,5.844,0" transform="translate(-431.645 -35.904)" fill="#201d1b"/>
      <path id="Path_54" data-name="Path 54" d="M462.55,154.806c.142.07,2.011,1.147,2.076.819a9.912,9.912,0,0,0-2.076-.819c-.354-.174-.751-.571-.929-.655-.116-.055-.207.115-.218.109-2.258-1.068-5.386-1.859-4.26-4.7,4.039,1.082,10.6,4.454,14.092,5.244,2.035.46,3.711.643,1.966-.109-.789-.34-4.107-1.235-6.008-1.966-1.253-.766-9.827-3.918-10.214-4.315-.149-.152-.873-1.823-.6-2.13l3.6,1.092c.074-.045.079-.245.055-.273-.232-.268-4.54-1.773-4.97-4.643,1.17-.111,2.31.437,2.239.164-.048-.187-3.059-2.668-2.349-2.895l1.693.164c-2.565-2.012-2.75-4-3.386-5.68-.033-.086-.145-.054-.219-.055a2.085,2.085,0,0,1,0-.218l.273-.437c4.349,3.514,22.778,16,24.415,20.046a11.074,11.074,0,0,1,.437,2.185l3.059,1.42c-.473,1.543,1.25,3.652.546,4.588-.5.66-7.937,3.189-3.878,2.239.811-.19,3.551-1.309,3.714-1.2a1.556,1.556,0,0,1,.109.874c-.137.208-3.736,2.137-4.206,2.676.953.489,4.723-2.02,4.97-1.912a5.478,5.478,0,0,1,.6,1.365c-.026.194-2.324,2.721-3,2.349-4.168-1.371-8.184.861-12.344,1.2L465.5,167.1c8.71-2.322,1.829-.613-1.584-2.349a7.721,7.721,0,0,1-.71-.382,4.808,4.808,0,0,1,.055-1.256c.393-.473,10.866-.065,12.289-.382-4.8-.875-9.728-.64-14.583-.819-.229-.162.153-1.426.492-1.584-1.526-.542-2.351-1.982-3.168-3.277l.164-.164c3.33.509,16.408,3.955,17.915,4.042a9.35,9.35,0,0,0,3.987-.929c-6.886.259-13.334-2.708-20.045-3.878-1.519-.515-1.673-.5-2.4-2.84,1.54.52,3.11.99,4.643,1.529" transform="translate(-354.061 -104.336)" fill="#201d1b"/>
      <path id="Path_55" data-name="Path 55" d="M541.675,278.356c1.309.18,4.059-.545,1.42.765-5,.063-7.741-.067-1.42-.765" transform="translate(-420.46 -217.509)" fill="#0b0b0b"/>
      <path id="Path_56" data-name="Path 56" d="M548.859,243.5c.084,0,.023.205.109.218a15.68,15.68,0,0,1,4.206,1.365c-.045.251-3.043-.707-3.332-.819-1.009-.392-1.955-.789-.983-.765" transform="translate(-428.626 -190.3)" fill="#0b0b0b"/>
      <path id="Path_57" data-name="Path 57" d="M496.565,231a9.912,9.912,0,0,1,2.076.819c-.064.328-1.933-.749-2.076-.819" transform="translate(-388.076 -180.534)" fill="#0b0b0b"/>
      <path id="Path_58" data-name="Path 58" d="M507.238,235.475a.824.824,0,0,1,.6.273c-.026.151-.756-.221-.6-.273" transform="translate(-396.4 -184.022)" fill="#0b0b0b"/>
      <path id="Path_59" data-name="Path 59" d="M599.443,174.549v.655c-5.138-.015-10.265-.213-15.4-.218a2.308,2.308,0,0,1,0-.273c.572-.519,13.54-.192,15.4-.164" transform="translate(-456.434 -136.314)" fill="#686863"/>
      <path id="Path_60" data-name="Path 60" d="M661.993,175.419c-2.467.194-4.957.116-7.428.109v-.655c1.274.019,6.569-.091,6.937,0,.49.122.436.393.492.546" transform="translate(-511.556 -136.638)" fill="#8b8c83"/>
      <path id="Path_61" data-name="Path 61" d="M659.166,211.752c-2.044.173-5.447.005-6.063.109-.031.005-.171.151-.164.218-.294-.185-.587-.344-.874-.546.265-.028.5-.189.765-.218a14.813,14.813,0,0,1,2.185.109c.584.022,1.164.1,1.748.109,3.244.064,1.8-.089,2.349-.655.113-.116,1.414-.512,1.038.492-.084.224-1.1,0-.983.382" transform="translate(-509.602 -164.669)" fill="#272723"/>
      <path id="Path_62" data-name="Path 62" d="M667.25,209.4c-.584-.012-1.164-.087-1.748-.109.767-.293-.153-.608,0-1.2,1.491-.094,1.759-.546,1.748,1.311" transform="translate(-520.09 -162.534)" fill="#171713"/>
      <path id="Path_63" data-name="Path 63" d="M517.913,23.57c-.562.111-1.693-.106-2.185.492.647,9.5.82,19.061-1.311,28.4l3.332.6,30.041.546.273.437c.073,1.038-.815.72-1.748.765-6.7.322-19.632-.677-27.037-.874l6.172,2.731c5.137.005,10.265.2,15.4.218,2.471.007,4.961.084,7.428-.109.188.521.225,1.3-.273,1.639-.951.645-15.521.12-17.915,0l3.386,1.857c2.335.424,14.146-.317,14.747.109a2.221,2.221,0,0,1,.055.819c-.373.53-11.422-.013-12.945-.055l3.059,2.294a14.953,14.953,0,0,0,1.8-.109c0,1.129.757.364,3.059.218-.152.594.767.909,0,1.2a14.813,14.813,0,0,0-2.185-.109c-1.268-.38-1.866-.558-.765.218.287.2.58.361.874.546.859.542,1.732,1.06,2.567,1.639l4.861-.437c0,.176.052.774-.055.874-.152.142-3.117.144-3.769.492,2.866,2.191,3.28.877,3.66,1.147.163.117-.029,1.126.055,1.365a27.415,27.415,0,0,0,2.294,1.693h-.546c-2.8-1.5-8.516-5.5-12.29-7.756-9.732-5.811-17.98-9.92-28.894-13.273l4.424,1.147c3.038-8.039,2.288-16.906,2.239-25.4-.539-3.336-1.609-4.371,2.676-3.66v.218c-.554-.057-.467.1-.492.109" transform="translate(-397.845 -17.998)" fill="#0b0b0b"/>
      <path id="Path_64" data-name="Path 64" d="M592.315,181c6.9.673,13.786.461,20.7.492-3.757.151-17.509.419-19.827-.055-.078-.016-.87-.3-.874-.437" transform="translate(-462.906 -141.458)" fill="#9fa09c"/>
      <path id="Path_65" data-name="Path 65" d="M650.766,212.343c-.265.029-.5.19-.765.218-1.1-.776-.5-.6.765-.218" transform="translate(-507.538 -165.697)" fill="#9fa09c"/>
      <path id="Path_66" data-name="Path 66" d="M710.821,75.832c-.187-.005-.449-.045-.546.164-.3.649.21,7.237.109,8.63-3.727-6.312-3.448-5.058-.218.437a103.176,103.176,0,0,1-5.79,28.512c-.289.347-.933.082-1.311-.055V113.3c1.694-8.335,3.3-16.812,3.386-25.344,1.149.121.09-3.483.874-5.407-.885-1.258-.379-2.491-1.092-2.239-.071-1.31-.188-2.62-.219-3.933,2.71-.028.949,1.033,1.748,1.748.733.656,1.811-.548,1.639-1.365.281-.072.271-.042.437-.273.043-.059.154.182.218.055a.98.98,0,0,1,.71-1.038c.1.053.038.228.055.328" transform="translate(-549.46 -59.008)" fill="#dcdcd9"/>
      <path id="Path_67" data-name="Path 67" d="M717.437,114.5c.75,2.423.1,7.683-.273,10.432-.561,4.127-1.718,8.173-2.349,12.289.012-2.2.779-4.34,1.147-6.5.843-4.947,1.707-11.289,1.475-16.222" transform="translate(-558.643 -89.487)" fill="#0b0b0b"/>
      <path id="Path_68" data-name="Path 68" d="M717.783,105.033c.025-2.556-.081-5.1-.218-7.647.714-.251.208.982,1.092,2.239-.784,1.925.275,5.528-.874,5.407" transform="translate(-560.792 -76.084)" fill="#c1c1bb"/>
      <path id="Path_69" data-name="Path 69" d="M556.7,69.222c6.755.118,13.507.3,20.264.218.26.115.224,1.991.055,2.513-10.073.023-20.142-.343-30.2-.765V69c3.3.059,6.59.161,9.886.218" transform="translate(-427.347 -53.928)" fill="#0b0b0b"/>
      <path id="Path_70" data-name="Path 70" d="M563.451,73.821l-.219.765c-5.371-.1-10.74-.313-16.113-.328l-.055-.6c5.431-.092,10.931.075,16.386.164" transform="translate(-427.543 -57.544)" fill="#686863"/>
      <path id="Path_71" data-name="Path 71" d="M621.065,75.269l.218-.765c4.462.073,8.919.171,13.382.109.826,1.259-2.294.886-4.807.874-2.923-.014-5.868-.165-8.794-.218" transform="translate(-485.375 -58.226)" fill="#4f5454"/>
      <path id="Path_72" data-name="Path 72" d="M585.4,44.659c-2.133.017-4.216-.171-6.336-.218a9.8,9.8,0,0,1,3.277-.328A20.485,20.485,0,0,0,584.527,44c-.17.848.844.114.874.655" transform="translate(-452.551 -34.39)" fill="#c1c1bb"/>
      <path id="Path_73" data-name="Path 73" d="M596.231,43.142a20.485,20.485,0,0,1-2.185.109c0-.072-.031-.189.055-.218.44-.154,4.375-.233,2.13.109" transform="translate(-464.255 -33.528)" fill="#686863"/>
      <path id="Path_74" data-name="Path 74" d="M570.461,125.05a32.415,32.415,0,0,1,4.37.273c.029.232-.044.59,0,.71-1.9.4-15.14-.672-15.785-.218-.181.127.123,1.041-.219,1.2l-15.512-.546V124.5c9.041.271,18.11.157,27.146.546" transform="translate(-424.612 -97.302)" fill="#171713"/>
      <path id="Path_75" data-name="Path 75" d="M546.165,127.883c-.249-.11-.2-.921-.109-.983a10.068,10.068,0,0,1,1.529,0c.3.146.026.634.328.765,1.2.517,12.468-.485,13-.109.192.136.011,1.044-.546.874" transform="translate(-426.697 -99.152)" fill="#4f5454"/>
      <path id="Path_76" data-name="Path 76" d="M713.565,193.453c1.388-2.949,2.958-5.868,4.151-8.9,1.042-2.65,1.773-5.68,2.294-7.046h.109c-.308,3.019-4.355,13.061-6.554,15.949" transform="translate(-557.666 -138.723)" fill="#0b0b0b"/>
      <path id="Path_77" data-name="Path 77" d="M743.174,175.55h-.109c.074-.194.056-.377.219-.546.063.613-.106.518-.109.546" transform="translate(-580.72 -136.769)" fill="#dcdcd9"/>
      <path id="Path_78" data-name="Path 78" d="M697.924,26.269c-1.645.31-3.855.461-5.517.874-1.027.255-.061.246.382.218.915.315-1.6,1.172-1.748-.6-.217-2.562,4.984.022,4.916-2.676a8.994,8.994,0,0,0,2.512-.765c3.111-1.03,2.388-1.044,3.059,2.239-.107.143-3.1.407-3.55.492-.093.017-.043.216-.055.218" transform="translate(-540.058 -17.747)" fill="#c1c1bb"/>
      <path id="Path_79" data-name="Path 79" d="M701.2,39a19.729,19.729,0,0,1-5.134,1.092c-.444.027-1.41.036-.382-.218,1.662-.412,3.871-.564,5.517-.874" transform="translate(-543.333 -30.482)" fill="#201d1b"/>
      <path id="Path_80" data-name="Path 80" d="M703.687,29.977c.078-.008.251-.026.273.055a27.792,27.792,0,0,1-9.395,2.076c1.8-.2,8.655-2.084,9.122-2.13" transform="translate(-542.817 -23.422)" fill="#201d1b"/>
      <path id="Path_81" data-name="Path 81" d="M704,54.485c.112.005.217-.038.273.055l-.055,3c-1.981.307-7.433,1.328-8.848,1.311-1.226-.015-1.112-.16-1.092-2.622,1.9-.156,3.806-.326,5.681-.655A36.648,36.648,0,0,0,704,54.485" transform="translate(-542.579 -42.577)" fill="#0b0b0b"/>
      <path id="Path_82" data-name="Path 82" d="M704.218,62.5c.565.01.684.351.492.929-.123.37-3.029,1.179-1.912-.382-.329-.149-.759,2.067-1.2.218-.741,1.619-2.223.106-1.311-.218.187-.066,3.734-.55,3.933-.546" transform="translate(-547.062 -48.848)" fill="#c1c1bb"/>
      <path id="Path_83" data-name="Path 83" d="M726.051,59.992c.449.1.286,1.128.218,1.2a6.2,6.2,0,0,1-2.021.273c-.554-1.357,1.664-1.5,1.8-1.475" transform="translate(-565.945 -46.882)" fill="#c1c1bb"/>
      <path id="Path_84" data-name="Path 84" d="M735.4,58.451c.215.073.216,1.126.164,1.256-.508,1.261-.875-1.5-.164-1.256" transform="translate(-574.419 -45.669)" fill="#dcdcd9"/>
      <path id="Path_85" data-name="Path 85" d="M698.105,65c.734,1.116.244,1.71-.055.819a3.5,3.5,0,0,1,.055-.819" transform="translate(-545.538 -50.802)" fill="#3d3b38"/>
      <path id="Path_86" data-name="Path 86" d="M648.762,54.721c-.587.341-4.256.519-4.7.109A35.189,35.189,0,0,0,648.6,54.5c.184-.005.182.053.164.218" transform="translate(-503.35 -42.595)" fill="#181417"/>
      <path id="Path_87" data-name="Path 87" d="M666.565,49.193c.49-.3,1.248-.477,1.311-1.2,0,.011.2-.038.219.055.107.518-.962,1.273-1.529,1.147" transform="translate(-520.934 -37.504)" fill="#201d1b"/>
      <path id="Path_88" data-name="Path 88" d="M114.927,161.678a8.513,8.513,0,0,1,2.574-6.39,8.68,8.68,0,0,1,6.277-2.5,8.779,8.779,0,0,1,6.242,2.461,9.239,9.239,0,0,1,.009,12.859,8.754,8.754,0,0,1-6.251,2.469,8.636,8.636,0,0,1-8.851-8.9m3.5-.009a5.6,5.6,0,0,0,1.556,4.085,5.329,5.329,0,0,0,7.616-.017,5.651,5.651,0,0,0,1.539-4.067,5.59,5.59,0,0,0-1.565-4.076,5.1,5.1,0,0,0-3.791-1.6,5.006,5.006,0,0,0-3.843,1.636,5.73,5.73,0,0,0-1.513,4.041" transform="translate(-89.818 -119.41)" fill="#201d1b"/>
      <path id="Path_89" data-name="Path 89" d="M211.131,167.9V156.946H207.74v-2.939h6.034V157.8a6.678,6.678,0,0,1,1.548-2.452,4.924,4.924,0,0,1,2.1-1.287,11.516,11.516,0,0,1,3.017-.313h.869v3.339h-.66a10.6,10.6,0,0,0-3.765.5,3.382,3.382,0,0,0-1.843,1.835,12.992,12.992,0,0,0-.6,4.773v3.7H218.1v2.939H207.74V167.9Z" transform="translate(-162.353 -120.156)" fill="#201d1b"/>
      <path id="Path_90" data-name="Path 90" d="M287.621,154.007v2.034a10.229,10.229,0,0,1,5.808-2.3,4.5,4.5,0,0,1,2.7.774,3.563,3.563,0,0,1,1.4,1.9,12.32,12.32,0,0,1,.33,3.278V167.9H300.7v2.939h-6.139V159.832a3.745,3.745,0,0,0-.574-2.5,1.9,1.9,0,0,0-1.409-.582,8.476,8.476,0,0,0-4.956,2.139V167.9h2.9v2.939h-9.164V167.9h2.956V156.946h-2.956v-2.939Z" transform="translate(-219.889 -120.156)" fill="#201d1b"/>
      <path id="Path_91" data-name="Path 91" d="M394.718,167.154v2.939h-5.773v-2.052a7.517,7.517,0,0,1-5.356,2.33,5.839,5.839,0,0,1-3.991-1.5,5.139,5.139,0,0,1,.1-7.721,6.43,6.43,0,0,1,4.339-1.548,8.322,8.322,0,0,1,4.573,1.426v-1.669a6.282,6.282,0,0,0-.243-1.982,2.539,2.539,0,0,0-1.139-1.252,4.38,4.38,0,0,0-2.339-.556,3.816,3.816,0,0,0-3.6,1.982l-3.165-.835q2.1-3.93,7.269-3.93a9.424,9.424,0,0,1,3.278.513,4.8,4.8,0,0,1,2.061,1.321,4.345,4.345,0,0,1,.913,1.748,13.614,13.614,0,0,1,.235,2.991v7.79Zm-6.1-3.321a7,7,0,0,0-4.33-1.669,3.378,3.378,0,0,0-2.3.8,2.612,2.612,0,0,0-.922,2.069,2.676,2.676,0,0,0,.809,1.982,2.99,2.99,0,0,0,2.2.8,6.551,6.551,0,0,0,4.538-2.017Z" transform="translate(-295.339 -119.409)" fill="#201d1b"/>
      <path id="Path_92" data-name="Path 92" d="M96.182,264.188V246.051h-3.46v-3.026h8.257l10.61,18.8V246.051h-3.426v-3.026h9.929v3.026h-3.565v21.406h-3.748L99.173,246.812v17.376h3.46v3.026H92.722v-3.026Z" transform="translate(-72.464 -189.929)" fill="#201d1b"/>
      <path id="Path_93" data-name="Path 93" d="M217.681,274.171H204.6a5.66,5.66,0,0,0,1.7,3.487,5.057,5.057,0,0,0,3.616,1.334,5.927,5.927,0,0,0,5.062-2.571l2.7,1.189a8.138,8.138,0,0,1-3.423,3.029,10.243,10.243,0,0,1-4.4.988,8.918,8.918,0,0,1-6.1-2.226,7.588,7.588,0,0,1-2.531-6,7.732,7.732,0,0,1,2.467-5.9,8.04,8.04,0,0,1,5.665-2.314,8.358,8.358,0,0,1,5.681,2.258q2.547,2.258,2.644,6.725m-3.15-2.218a5.563,5.563,0,0,0-1.7-2.965,4.713,4.713,0,0,0-3.391-1.326,4.466,4.466,0,0,0-3.134,1.2,5.111,5.111,0,0,0-1.591,3.093Z" transform="translate(-157.261 -207.25)" fill="#201d1b"/>
      <path id="Path_94" data-name="Path 94" d="M284.962,282.987l-4.168-13.1h-1.9v-2.716h6.557v2.716h-2.037l2.977,9.385,2.973-9.385h-1.7v-2.716h7.521v2.716h-1.712l2.973,9.385,2.985-9.385H297.3v-2.716h7.023v2.716h-2.234l-4.172,13.1H295.04l-3.568-11.249-3.632,11.249Z" transform="translate(-217.964 -208.802)" fill="#201d1b"/>
      <path id="Path_95" data-name="Path 95" d="M401.44,281.867v-5.335h2.732v.514a2.537,2.537,0,0,0,1.181,1.8,4.241,4.241,0,0,0,2.451.707,4.679,4.679,0,0,0,2.362-.514,1.586,1.586,0,0,0,.884-1.43,1.4,1.4,0,0,0-.731-1.3,9.935,9.935,0,0,0-2.9-.769,9.343,9.343,0,0,1-4.588-1.757,4,4,0,0,1-1.373-3.143,4.157,4.157,0,0,1,1.494-3.256,5.754,5.754,0,0,1,3.937-1.311,7.541,7.541,0,0,1,3.793.906v-.665H413.4v5.159H410.68v-.948a4.025,4.025,0,0,0-3.6-1.913,3.5,3.5,0,0,0-1.985.522,1.6,1.6,0,0,0-.779,1.39,1.216,1.216,0,0,0,.715,1.213,14.277,14.277,0,0,0,3.078.7,16.057,16.057,0,0,1,3.423.826,4.29,4.29,0,0,1,1.92,1.575,4.391,4.391,0,0,1,.763,2.564,4.122,4.122,0,0,1-1.663,3.448,6.885,6.885,0,0,1-4.315,1.278,6.8,6.8,0,0,1-4.066-1.132v.874Z" transform="translate(-313.734 -207.939)" fill="#201d1b"/>
      <path id="Path_96" data-name="Path 96" d="M17.211,144.245v-18.8H14.393V122.31h8.02a24.166,24.166,0,0,1,5.121.414,8.134,8.134,0,0,1,3.481,1.875,10.08,10.08,0,0,1,2.691,4.01,15.742,15.742,0,0,1,1.006,5.813,19.37,19.37,0,0,1-.969,6.453,9.4,9.4,0,0,1-2.542,4.091,8.888,8.888,0,0,1-3.742,1.884,23.774,23.774,0,0,1-5.523.532H14.393v-3.136Zm3.13,0h1.64a18.071,18.071,0,0,0,4.346-.414,6.3,6.3,0,0,0,2.705-1.415A7.062,7.062,0,0,0,30.82,139.4a14.825,14.825,0,0,0,.686-4.758,12.371,12.371,0,0,0-1.126-5.533A5.673,5.673,0,0,0,27.5,126.14a15.591,15.591,0,0,0-5.389-.694H20.341Z" transform="translate(-11.248 -95.588)" fill="#201d1b"/>
    </g>
  </g>
</svg>
