<?xml version="1.0" standalone="no"?>
<!DOCTYPE svg PUBLIC "-//W3C//DTD SVG 20010904//EN"
 "http://www.w3.org/TR/2001/REC-SVG-20010904/DTD/svg10.dtd">
<svg version="1.0" xmlns="http://www.w3.org/2000/svg"
 width="512.000000pt" height="512.000000pt" viewBox="0 0 512.000000 512.000000"
 preserveAspectRatio="xMidYMid meet">

<g transform="translate(0.000000,512.000000) scale(0.100000,-0.100000)"
fill="#000000" stroke="none">
<path d="M160 5014 c-57 -25 -99 -63 -125 -114 l-25 -49 0 -541 c0 -596 -1
-581 63 -648 69 -72 87 -76 334 -80 l222 -4 78 -91 c43 -50 92 -105 109 -122
l31 -32 -34 -101 c-115 -346 -121 -760 -13 -1094 16 -52 30 -98 30 -102 0 -3
-146 -6 -325 -6 l-326 0 -49 -25 c-56 -28 -104 -87 -120 -146 -7 -25 -10 -228
-8 -572 l3 -534 30 -49 c19 -30 49 -60 79 -79 l49 -30 227 -3 227 -3 102 -119
c75 -87 112 -122 142 -134 90 -36 132 -14 260 134 l102 119 227 3 227 3 49 30
c30 19 60 49 79 79 28 46 30 57 34 163 2 80 7 113 15 110 68 -26 253 -80 336
-99 94 -20 132 -22 350 -22 211 0 259 3 345 21 55 12 108 24 118 28 16 7 17
-5 17 -162 0 -240 21 -297 131 -358 l54 -30 221 -3 220 -4 97 -113 c100 -115
140 -145 196 -145 60 0 96 26 200 143 l102 115 217 4 c204 3 220 4 264 26 57
28 110 88 126 141 8 24 12 118 12 248 0 206 0 210 -23 231 -29 27 -67 28 -98
3 -24 -19 -24 -23 -29 -233 -3 -117 -9 -219 -14 -227 -22 -34 -72 -41 -288
-41 -254 0 -230 10 -369 -153 -51 -59 -95 -106 -99 -105 -4 2 -52 55 -108 119
-56 64 -109 120 -119 125 -10 5 -123 11 -251 14 l-234 5 -29 33 -30 33 3 515
3 516 28 24 28 24 713 0 713 0 26 -26 c25 -25 26 -28 29 -196 3 -165 4 -170
27 -189 30 -25 62 -24 95 2 l26 20 0 175 c0 188 -5 215 -57 282 -14 19 -49 45
-77 58 -50 23 -58 24 -313 24 -173 0 -263 4 -263 10 0 6 16 41 35 79 19 38 52
120 74 183 98 286 124 589 75 891 l-17 106 58 68 c31 37 73 85 91 106 l34 37
189 0 c105 0 213 5 241 11 64 14 127 61 160 119 l25 45 3 534 c3 613 5 598
-77 674 -29 27 -65 50 -89 57 -29 7 -266 10 -774 8 -817 -3 -758 2 -832 -74
-49 -51 -66 -108 -66 -227 0 -91 -2 -99 -17 -92 -92 39 -258 90 -361 112 -116
25 -147 27 -357 28 -200 0 -244 -3 -341 -23 -94 -19 -276 -71 -336 -97 -17 -7
-18 7 -18 213 0 122 -5 244 -11 272 -15 69 -62 129 -128 163 l-55 27 -491 0
c-533 0 -525 1 -539 -55 -7 -29 15 -79 39 -89 9 -3 232 -6 496 -6 l480 0 24
-24 c13 -13 26 -39 30 -57 3 -19 5 -253 3 -521 l-3 -488 -28 -27 -27 -28 -233
-5 c-194 -4 -237 -8 -258 -21 -14 -10 -68 -67 -120 -127 -52 -61 -97 -111
-100 -111 -4 -1 -53 51 -109 114 -55 63 -111 121 -123 127 -15 9 -94 15 -254
18 -228 5 -232 5 -257 29 l-26 24 0 518 c0 285 3 525 6 534 11 28 60 45 132
45 55 0 75 4 96 21 34 27 36 77 3 107 -20 19 -34 22 -113 22 -56 -1 -102 -6
-124 -16z m4781 -463 l29 -29 0 -507 c0 -558 1 -552 -61 -574 -20 -7 -114 -11
-241 -11 -160 0 -215 -3 -236 -14 -15 -8 -72 -66 -126 -130 -55 -64 -103 -116
-106 -116 -3 0 -49 50 -101 111 -52 60 -108 119 -125 130 -29 17 -51 19 -243
19 -225 0 -268 7 -290 48 -8 14 -11 185 -11 532 l0 512 29 29 29 29 712 0 712
0 29 -29z m-2069 -250 c165 -36 408 -125 408 -150 0 -5 -83 -52 -184 -104
-101 -52 -259 -140 -351 -196 l-168 -100 -41 24 c-64 38 -130 48 -196 31 l-54
-14 -106 91 c-58 50 -156 131 -217 180 -63 49 -113 97 -113 106 0 31 257 117
435 146 133 21 457 13 587 -14z m435 -888 c12 -22 39 -55 60 -72 63 -52 112
-61 337 -62 l201 0 58 -69 58 -69 -38 -34 c-100 -90 -464 -383 -511 -411 -7
-4 -32 0 -57 9 -31 12 -63 16 -105 13 l-61 -4 -98 130 c-123 163 -274 345
-415 499 -71 78 -104 121 -99 130 4 6 10 43 13 81 l5 68 150 91 c83 50 222
128 310 173 l160 83 5 -257 c5 -241 6 -260 27 -299z m-1240 370 l111 -95 -14
-33 c-16 -39 -19 -132 -5 -168 9 -23 4 -29 -52 -73 -107 -83 -288 -237 -396
-337 -93 -87 -105 -95 -125 -85 -11 6 -50 14 -85 17 l-64 6 -64 120 c-74 139
-183 370 -183 388 0 7 7 23 16 35 15 21 20 22 217 22 117 0 219 5 242 11 63
18 118 62 149 120 25 45 30 67 34 151 l5 98 51 -41 c28 -22 101 -83 163 -136z
m406 -154 c61 -66 17 -169 -73 -169 -88 0 -133 100 -75 169 42 49 102 49 148
0z m-1197 -724 c-49 -72 -59 -182 -22 -252 l15 -30 -86 -104 c-48 -57 -120
-149 -161 -204 -41 -55 -78 -101 -82 -103 -9 -3 -32 89 -52 208 -16 98 -16
393 1 495 32 194 101 398 152 451 l31 32 115 -228 114 -228 -25 -37z m1122
405 c29 0 69 7 89 15 19 8 39 15 42 15 22 0 354 -388 509 -595 l88 -117 -24
-49 c-17 -34 -25 -68 -26 -108 l-1 -59 -175 -115 c-96 -63 -239 -153 -317
-200 l-142 -86 -35 14 c-42 18 -130 19 -177 3 l-33 -11 -79 84 c-102 108 -255
291 -348 414 -71 95 -72 97 -60 128 32 80 36 159 10 208 -7 13 10 34 74 95 97
94 246 222 376 326 l95 75 40 -18 c23 -10 64 -19 94 -19z m1771 -297 c15 -30
31 -152 37 -293 13 -284 -63 -610 -200 -854 l-37 -66 -92 0 -92 0 -64 128
c-34 70 -94 182 -132 250 l-70 122 19 28 c31 44 45 100 40 161 -3 31 -8 63
-11 71 -5 10 14 30 60 65 92 69 289 227 403 324 97 83 122 94 139 64z m-2620
-174 c50 -47 50 -111 -1 -154 -102 -86 -228 56 -133 151 32 32 101 34 134 3z
m1852 -298 c94 -94 -46 -235 -143 -144 -32 31 -40 68 -23 109 29 69 114 87
166 35z m-1741 -130 c110 -144 233 -291 339 -402 l91 -97 -15 -36 c-8 -19 -15
-44 -15 -55 0 -15 -26 -34 -104 -75 -57 -31 -106 -56 -110 -56 -3 0 -6 33 -6
73 -1 121 -42 198 -130 242 l-49 25 -321 0 c-227 0 -320 3 -320 11 0 18 124
191 234 327 56 69 105 130 110 136 5 8 44 11 113 10 l106 -2 77 -101z m1552
-164 c44 -22 71 -29 117 -29 35 0 64 -5 70 -12 19 -23 211 -381 211 -393 0
-10 -44 -13 -200 -13 -222 0 -248 -5 -308 -63 -66 -63 -76 -96 -80 -254 -2
-79 -6 -143 -9 -143 -13 0 -233 161 -381 279 l-82 66 7 40 c8 52 6 116 -6 147
-9 25 -5 28 118 102 70 42 206 127 302 190 95 63 176 113 179 113 3 -1 31 -15
62 -30z m-834 -382 c35 -30 45 -69 27 -111 -43 -104 -195 -76 -195 36 0 88
100 133 168 75z m-733 9 c43 -17 45 -36 45 -563 0 -345 -3 -508 -11 -524 -6
-14 -21 -30 -33 -36 -13 -6 -108 -12 -241 -13 -185 -3 -225 -6 -251 -20 -17
-9 -75 -68 -129 -130 -54 -62 -101 -113 -105 -113 -3 0 -52 52 -108 116 -74
86 -112 121 -142 133 -33 13 -80 16 -254 16 l-214 0 -26 31 -26 31 0 504 c0
518 1 532 39 561 12 9 184 12 728 13 391 0 719 -3 728 -6z m583 -322 c55 -17
134 -15 182 4 27 11 44 13 53 7 6 -6 57 -46 112 -90 112 -89 288 -217 383
-278 61 -39 62 -41 62 -86 l0 -46 -87 -21 c-149 -35 -254 -45 -447 -39 -235 6
-411 43 -593 124 l-53 23 0 184 0 184 127 65 127 65 47 -42 c26 -23 65 -48 87
-54z"/>
<path d="M3885 4397 c-97 -32 -172 -98 -214 -187 -21 -46 -26 -70 -26 -140 0
-78 3 -90 34 -148 52 -95 155 -182 410 -344 106 -68 120 -66 267 28 237 151
321 225 368 323 27 57 31 77 31 146 0 67 -5 89 -28 137 -35 72 -97 134 -167
167 -46 22 -69 26 -145 26 -83 0 -95 -3 -152 -33 l-62 -34 -67 33 c-55 27 -82
34 -139 36 -38 2 -88 -3 -110 -10z m168 -151 c18 -7 52 -30 75 -50 58 -48 87
-47 148 4 60 49 102 64 166 58 60 -6 113 -45 146 -108 41 -81 24 -149 -56
-230 -55 -54 -308 -230 -331 -230 -15 0 -216 134 -293 195 -99 78 -135 158
-108 240 15 46 65 104 105 121 39 17 107 17 148 0z"/>
<path d="M588 1695 c-210 -79 -290 -323 -167 -509 41 -62 125 -130 308 -253
197 -132 184 -133 397 9 202 133 273 198 316 286 29 58 33 76 33 147 0 71 -4
88 -33 147 -36 73 -87 124 -161 160 -38 19 -63 23 -142 23 -88 0 -101 -3 -157
-32 l-62 -32 -62 32 c-53 28 -73 32 -147 34 -55 2 -99 -3 -123 -12z m195 -151
c18 -9 49 -32 70 -50 24 -23 47 -34 67 -34 20 0 43 11 67 34 55 49 95 66 154
66 127 0 213 -114 178 -238 -18 -65 -83 -127 -253 -240 -76 -51 -141 -92 -145
-92 -4 0 -59 34 -122 76 -240 161 -283 208 -284 309 0 74 27 123 88 160 50 30
131 34 180 9z"/>
<path d="M603 4691 c-155 -53 -241 -182 -231 -345 10 -151 75 -225 367 -420
181 -120 186 -121 316 -39 341 216 426 312 427 483 0 131 -78 253 -196 309
-100 46 -233 37 -326 -23 l-35 -23 -35 24 c-77 53 -193 67 -287 34z m174 -146
c19 -8 53 -31 74 -50 53 -48 95 -48 148 0 72 66 149 81 227 46 43 -19 86 -68
99 -110 13 -42 6 -109 -14 -150 -26 -50 -75 -92 -244 -206 l-139 -93 -56 36
c-220 143 -314 221 -338 279 -65 153 91 311 243 248z"/>
<path d="M3600 1458 c-78 -30 -170 -124 -196 -198 -26 -76 -24 -180 4 -243 45
-101 114 -164 355 -324 159 -105 180 -111 256 -66 82 47 254 165 323 221 114
92 166 200 156 326 -9 113 -75 210 -180 267 -59 32 -69 34 -158 34 -89 0 -99
-2 -155 -33 l-60 -33 -63 33 c-85 43 -198 49 -282 16z m197 -143 c19 -8 53
-31 74 -50 57 -51 95 -47 171 21 115 103 308 14 308 -142 0 -73 -40 -133 -137
-206 -104 -78 -257 -178 -272 -178 -14 0 -218 138 -298 201 -62 50 -113 128
-113 173 0 70 50 149 112 179 42 21 108 21 155 2z"/>
</g>
</svg>
