<?xml version="1.0" standalone="no"?>
<!DOCTYPE svg PUBLIC "-//W3C//DTD SVG 20010904//EN"
 "http://www.w3.org/TR/2001/REC-SVG-20010904/DTD/svg10.dtd">
<svg version="1.0" xmlns="http://www.w3.org/2000/svg"
 width="512.000000pt" height="512.000000pt" viewBox="0 0 512.000000 512.000000"
 preserveAspectRatio="xMidYMid meet">

<g transform="translate(0.000000,512.000000) scale(0.100000,-0.100000)"
fill="#000000" stroke="none">
<path d="M2605 5095 c-24 -23 -25 -29 -25 -155 0 -126 1 -132 25 -155 28 -29
45 -31 85 -10 37 19 43 49 38 195 -3 103 -5 113 -27 131 -32 26 -67 24 -96 -6z"/>
<path d="M1973 5012 c-28 -4 -53 -38 -53 -70 0 -23 40 -167 62 -225 19 -49 77
-63 118 -29 30 25 29 56 -9 183 -39 129 -57 151 -118 141z"/>
<path d="M1339 4701 c-16 -16 -29 -39 -29 -50 0 -11 33 -68 73 -128 82 -122
109 -140 156 -106 18 14 27 31 29 55 2 29 -9 53 -66 140 -64 97 -86 117 -125
118 -5 0 -22 -13 -38 -29z"/>
<path d="M3624 4551 c-46 -28 -64 -75 -64 -170 l0 -81 -32 -14 c-33 -14 -33
-13 -93 44 -89 85 -120 96 -188 64 -33 -16 -38 -15 -113 9 -284 93 -625 105
-914 32 -549 -138 -1000 -543 -1188 -1065 -74 -205 -103 -375 -103 -595 0
-206 21 -339 82 -531 81 -256 214 -470 418 -675 145 -145 266 -234 433 -319
l88 -45 0 -137 0 -136 -35 -22 c-20 -12 -46 -41 -58 -64 -19 -36 -22 -56 -22
-166 0 -142 9 -169 72 -217 32 -25 46 -28 125 -31 l88 -4 0 -149 c0 -171 8
-201 66 -245 l37 -29 398 0 c386 0 398 1 425 21 64 48 69 61 74 237 l5 162 85
5 c93 6 116 15 153 60 41 48 50 91 45 215 -5 128 -19 164 -81 204 l-37 24 0
137 0 137 52 24 c272 126 536 358 701 616 64 100 117 208 117 238 0 39 -34 67
-78 63 -41 -3 -35 4 -129 -158 -122 -208 -295 -392 -483 -514 -64 -42 -160
-96 -171 -96 -5 0 -9 88 -9 200 0 196 0 200 21 200 36 0 84 29 104 63 17 27
20 51 20 162 0 141 -7 164 -63 202 -40 27 -274 27 -314 0 -56 -38 -63 -61 -63
-202 0 -110 3 -135 19 -161 22 -37 64 -64 100 -64 l26 0 0 -420 0 -420 -55 0
-55 0 0 310 c0 257 -3 317 -15 348 -11 24 -118 139 -311 332 l-294 296 25 24
c28 26 40 74 30 119 -9 42 -143 184 -200 211 -69 34 -102 19 -212 -92 -97
-100 -113 -132 -94 -191 15 -45 189 -216 222 -219 44 -2 73 3 102 20 l29 17
284 -290 284 -289 0 -298 0 -298 -75 0 -75 0 0 324 c0 312 -1 324 -21 350 -27
34 -79 36 -109 4 -19 -21 -20 -34 -20 -350 l0 -328 -115 0 -115 0 0 270 0 270
31 0 c40 0 88 34 105 76 21 50 19 245 -3 291 -29 62 -60 73 -206 73 -142 0
-170 -9 -201 -60 -23 -40 -23 -280 0 -320 20 -33 63 -60 98 -60 l26 0 0 -270
0 -270 -50 0 -50 0 0 166 c0 94 -4 174 -10 185 -6 10 -65 46 -132 80 -177 88
-286 166 -423 304 -247 246 -399 549 -445 885 -17 121 -14 338 5 460 97 606
535 1098 1121 1260 265 73 606 68 853 -11 l33 -11 -50 -52 c-85 -86 -83 -142
8 -240 64 -68 66 -72 48 -111 -11 -24 -14 -25 -105 -25 -92 0 -94 0 -131 -34
l-37 -34 -3 -175 c-4 -196 2 -222 61 -257 25 -16 50 -20 118 -20 82 0 86 -1
97 -25 18 -39 16 -43 -48 -111 -62 -66 -78 -106 -66 -161 5 -19 47 -69 124
-145 124 -122 145 -138 187 -138 38 0 63 15 130 80 60 59 60 59 93 45 l32 -14
0 -82 c0 -95 18 -142 64 -170 27 -17 52 -19 199 -19 138 0 174 3 197 16 47 29
60 62 60 161 l0 89 34 17 c55 26 60 11 50 -141 -10 -168 -10 -179 11 -202 21
-23 72 -27 99 -7 21 15 35 74 36 147 0 30 4 60 8 66 4 6 25 14 47 18 33 7 59
27 157 124 166 164 173 197 62 313 l-64 66 15 36 15 37 88 0 c102 0 144 19
168 75 20 48 20 322 0 370 -24 56 -66 75 -168 75 l-88 0 -15 37 -15 36 64 66
c69 72 85 110 67 164 -14 43 -235 263 -274 272 -53 14 -94 -3 -161 -65 -68
-64 -72 -66 -111 -48 -24 11 -25 15 -25 101 0 99 -13 132 -60 161 -23 13 -59
16 -197 16 -147 0 -172 -2 -199 -19z m308 -208 c3 -45 12 -92 22 -111 20 -39
73 -75 144 -98 73 -23 115 -10 189 61 l58 54 77 -77 77 -76 -53 -56 c-71 -74
-86 -120 -63 -194 20 -62 51 -111 89 -139 21 -16 48 -22 113 -25 l85 -5 0
-107 0 -108 -83 -3 c-69 -3 -90 -8 -120 -29 -38 -26 -83 -110 -94 -175 -7 -45
24 -108 82 -165 l45 -44 -77 -78 -77 -77 -56 53 c-76 73 -121 87 -198 61 -118
-41 -153 -85 -160 -206 l-5 -79 -108 0 -109 0 0 84 c0 99 -19 136 -90 173
-119 61 -169 55 -255 -27 l-61 -59 -79 79 -79 80 57 58 c75 76 85 117 50 212
-40 110 -85 140 -210 140 l-63 0 0 110 0 110 63 0 c125 0 173 33 214 148 33
92 12 155 -81 242 l-27 24 78 78 77 77 56 -53 c91 -87 137 -92 263 -29 69 34
87 69 87 171 l0 82 109 0 108 0 5 -77z m-1669 -1961 l47 -48 -50 -49 -50 -49
-50 49 -50 49 47 48 c26 26 50 48 53 48 3 0 27 -22 53 -48z m1017 -382 l0 -70
-70 0 -70 0 0 70 0 70 70 0 70 0 0 -70z m-930 -300 l0 -70 -70 0 -70 0 0 70 0
70 70 0 70 0 0 -70z m904 -926 c8 -20 8 -158 0 -178 -6 -14 -71 -16 -634 -16
-563 0 -628 2 -634 16 -11 29 -7 169 6 182 9 9 164 12 634 12 558 0 622 -2
628 -16z m-284 -374 l0 -30 -350 0 -350 0 0 30 0 30 350 0 350 0 0 -30z m0
-215 l0 -35 -350 0 -350 0 0 35 0 35 350 0 350 0 0 -35z"/>
<path d="M3695 4074 c-33 -8 -89 -32 -125 -54 -167 -99 -260 -259 -260 -444 0
-155 56 -284 168 -387 206 -190 508 -184 706 15 131 131 186 318 142 485 -19
67 -40 91 -82 91 -48 0 -77 -34 -70 -80 19 -117 18 -168 -3 -237 -27 -87 -77
-154 -151 -202 -184 -119 -424 -52 -523 148 -29 60 -32 74 -32 161 0 83 3 102
28 155 37 78 104 147 181 181 51 24 75 28 141 28 44 0 103 -4 131 -8 46 -8 54
-6 73 13 26 26 28 82 3 104 -47 43 -213 58 -327 31z"/>
<path d="M3715 3806 c-59 -27 -117 -88 -136 -142 -17 -51 -16 -150 3 -195 58
-136 225 -198 356 -133 90 45 144 132 144 234 0 191 -195 317 -367 236z m184
-157 c53 -53 40 -144 -26 -178 -58 -29 -132 2 -153 64 -36 109 99 195 179 114z"/>
<path d="M836 4248 c-9 -12 -16 -37 -16 -55 0 -29 11 -42 102 -118 59 -49 111
-85 124 -85 37 0 74 37 74 75 0 37 -23 62 -138 154 -73 59 -119 68 -146 29z"/>
<path d="M2148 3824 c-49 -26 -58 -59 -58 -210 l0 -136 39 -39 39 -39 133 0
c113 0 139 3 165 19 50 31 64 73 64 200 0 124 -11 165 -55 199 -25 20 -39 22
-164 22 -101 -1 -143 -5 -163 -16z m232 -204 l0 -70 -70 0 -70 0 0 70 0 70 70
0 70 0 0 -70z"/>
<path d="M513 3690 c-46 -19 -57 -84 -20 -117 30 -27 212 -103 247 -103 33 0
70 40 70 74 0 37 -33 61 -148 110 -118 49 -116 49 -149 36z"/>
<path d="M1814 3254 c-57 -28 -69 -63 -69 -209 0 -143 7 -166 62 -202 22 -15
50 -18 158 -18 108 0 136 3 158 18 55 36 62 59 62 202 0 147 -12 182 -71 210
-45 21 -256 21 -300 -1z m221 -209 l0 -70 -70 0 -70 0 -3 59 c-4 86 -3 87 75
84 l68 -3 0 -70z"/>
<path d="M2497 3081 c-57 -37 -62 -54 -62 -203 0 -123 2 -139 21 -165 23 -30
54 -49 97 -58 l27 -5 0 -243 c0 -231 1 -244 20 -265 30 -32 82 -30 109 4 20
25 21 39 21 264 0 255 -1 250 50 250 11 0 35 16 55 35 l35 36 0 140 c0 213
-16 229 -222 229 -103 0 -128 -3 -151 -19z m223 -206 l0 -76 -67 3 -68 3 -3
73 -3 72 71 0 70 0 0 -75z"/>
<path d="M354 3040 c-26 -10 -54 -48 -54 -72 0 -9 10 -28 23 -42 20 -23 36
-27 145 -41 137 -16 163 -11 182 36 27 63 -11 95 -131 109 -46 6 -97 12 -114
14 -16 3 -40 1 -51 -4z"/>
<path d="M482 2390 c-51 -9 -104 -23 -118 -30 -49 -27 -42 -104 11 -125 40
-16 253 21 284 49 31 28 28 79 -5 105 -31 25 -48 25 -172 1z"/>
<path d="M685 1779 c-123 -64 -135 -73 -135 -116 0 -40 30 -73 65 -73 35 0
242 105 255 129 26 49 -8 111 -61 111 -13 0 -69 -23 -124 -51z"/>
<path d="M1047 1253 c-107 -103 -107 -103 -104 -142 3 -45 43 -77 83 -67 16 4
67 46 118 96 74 73 89 93 89 119 0 43 -28 71 -71 71 -29 0 -46 -11 -115 -77z"/>
</g>
</svg>
